<?xml version="1.0" encoding="utf-8" standalone="no"?>
<!DOCTYPE svg PUBLIC "-//W3C//DTD SVG 1.1//EN"
  "http://www.w3.org/Graphics/SVG/1.1/DTD/svg11.dtd">
<svg xmlns:xlink="http://www.w3.org/1999/xlink" width="852.39pt" height="360pt" viewBox="0 0 852.39 360" xmlns="http://www.w3.org/2000/svg" version="1.1">
 <metadata>
  <rdf:RDF xmlns:dc="http://purl.org/dc/elements/1.1/" xmlns:cc="http://creativecommons.org/ns#" xmlns:rdf="http://www.w3.org/1999/02/22-rdf-syntax-ns#">
   <cc:Work>
    <dc:type rdf:resource="http://purl.org/dc/dcmitype/StillImage"/>
    <dc:date>2022-12-18T21:16:17.651075</dc:date>
    <dc:format>image/svg+xml</dc:format>
    <dc:creator>
     <cc:Agent>
      <dc:title>Matplotlib v3.6.2, https://matplotlib.org/</dc:title>
     </cc:Agent>
    </dc:creator>
   </cc:Work>
  </rdf:RDF>
 </metadata>
 <defs>
  <style type="text/css">*{stroke-linejoin: round; stroke-linecap: butt}</style>
 </defs>
 <g id="figure_1">
  <g id="patch_1">
   <path d="M 0 360 
L 852.39 360 
L 852.39 0 
L 0 0 
z
" style="fill: #ffffff"/>
  </g>
  <g id="axes_1">
   <g id="patch_2">
    <path d="M 66.510098 318.04 
L 381.931283 318.04 
L 381.931283 24.72 
L 66.510098 24.72 
z
" style="fill: #ffffff"/>
   </g>
   <g id="PolyCollection_1"/>
   <g id="PolyCollection_2"/>
   <g id="matplotlib.axis_1">
    <g id="xtick_1">
     <g id="line2d_1">
      <defs>
       <path id="m52ca788f25" d="M 0 0 
L 0 3.5 
" style="stroke: #000000; stroke-width: 0.8"/>
      </defs>
      <g>
       <use xlink:href="#m52ca788f25" x="77.636258" y="318.04" style="stroke: #000000; stroke-width: 0.8"/>
      </g>
     </g>
     <g id="text_1">
      <!-- 2000 -->
      <g transform="translate(64.911258 332.638438) scale(0.1 -0.1)">
       <defs>
        <path id="DejaVuSans-32" d="M 1228 531 
L 3431 531 
L 3431 0 
L 469 0 
L 469 531 
Q 828 903 1448 1529 
Q 2069 2156 2228 2338 
Q 2531 2678 2651 2914 
Q 2772 3150 2772 3378 
Q 2772 3750 2511 3984 
Q 2250 4219 1831 4219 
Q 1534 4219 1204 4116 
Q 875 4013 500 3803 
L 500 4441 
Q 881 4594 1212 4672 
Q 1544 4750 1819 4750 
Q 2544 4750 2975 4387 
Q 3406 4025 3406 3419 
Q 3406 3131 3298 2873 
Q 3191 2616 2906 2266 
Q 2828 2175 2409 1742 
Q 1991 1309 1228 531 
z
" transform="scale(0.015625)"/>
        <path id="DejaVuSans-30" d="M 2034 4250 
Q 1547 4250 1301 3770 
Q 1056 3291 1056 2328 
Q 1056 1369 1301 889 
Q 1547 409 2034 409 
Q 2525 409 2770 889 
Q 3016 1369 3016 2328 
Q 3016 3291 2770 3770 
Q 2525 4250 2034 4250 
z
M 2034 4750 
Q 2819 4750 3233 4129 
Q 3647 3509 3647 2328 
Q 3647 1150 3233 529 
Q 2819 -91 2034 -91 
Q 1250 -91 836 529 
Q 422 1150 422 2328 
Q 422 3509 836 4129 
Q 1250 4750 2034 4750 
z
" transform="scale(0.015625)"/>
       </defs>
       <use xlink:href="#DejaVuSans-32"/>
       <use xlink:href="#DejaVuSans-30" x="63.623047"/>
       <use xlink:href="#DejaVuSans-30" x="127.246094"/>
       <use xlink:href="#DejaVuSans-30" x="190.869141"/>
      </g>
     </g>
    </g>
    <g id="xtick_2">
     <g id="line2d_2">
      <g>
       <use xlink:href="#m52ca788f25" x="129.191351" y="318.04" style="stroke: #000000; stroke-width: 0.8"/>
      </g>
     </g>
     <g id="text_2">
      <!-- 2004 -->
      <g transform="translate(116.466351 332.638438) scale(0.1 -0.1)">
       <defs>
        <path id="DejaVuSans-34" d="M 2419 4116 
L 825 1625 
L 2419 1625 
L 2419 4116 
z
M 2253 4666 
L 3047 4666 
L 3047 1625 
L 3713 1625 
L 3713 1100 
L 3047 1100 
L 3047 0 
L 2419 0 
L 2419 1100 
L 313 1100 
L 313 1709 
L 2253 4666 
z
" transform="scale(0.015625)"/>
       </defs>
       <use xlink:href="#DejaVuSans-32"/>
       <use xlink:href="#DejaVuSans-30" x="63.623047"/>
       <use xlink:href="#DejaVuSans-30" x="127.246094"/>
       <use xlink:href="#DejaVuSans-34" x="190.869141"/>
      </g>
     </g>
    </g>
    <g id="xtick_3">
     <g id="line2d_3">
      <g>
       <use xlink:href="#m52ca788f25" x="180.746444" y="318.04" style="stroke: #000000; stroke-width: 0.8"/>
      </g>
     </g>
     <g id="text_3">
      <!-- 2008 -->
      <g transform="translate(168.021444 332.638438) scale(0.1 -0.1)">
       <defs>
        <path id="DejaVuSans-38" d="M 2034 2216 
Q 1584 2216 1326 1975 
Q 1069 1734 1069 1313 
Q 1069 891 1326 650 
Q 1584 409 2034 409 
Q 2484 409 2743 651 
Q 3003 894 3003 1313 
Q 3003 1734 2745 1975 
Q 2488 2216 2034 2216 
z
M 1403 2484 
Q 997 2584 770 2862 
Q 544 3141 544 3541 
Q 544 4100 942 4425 
Q 1341 4750 2034 4750 
Q 2731 4750 3128 4425 
Q 3525 4100 3525 3541 
Q 3525 3141 3298 2862 
Q 3072 2584 2669 2484 
Q 3125 2378 3379 2068 
Q 3634 1759 3634 1313 
Q 3634 634 3220 271 
Q 2806 -91 2034 -91 
Q 1263 -91 848 271 
Q 434 634 434 1313 
Q 434 1759 690 2068 
Q 947 2378 1403 2484 
z
M 1172 3481 
Q 1172 3119 1398 2916 
Q 1625 2713 2034 2713 
Q 2441 2713 2670 2916 
Q 2900 3119 2900 3481 
Q 2900 3844 2670 4047 
Q 2441 4250 2034 4250 
Q 1625 4250 1398 4047 
Q 1172 3844 1172 3481 
z
" transform="scale(0.015625)"/>
       </defs>
       <use xlink:href="#DejaVuSans-32"/>
       <use xlink:href="#DejaVuSans-30" x="63.623047"/>
       <use xlink:href="#DejaVuSans-30" x="127.246094"/>
       <use xlink:href="#DejaVuSans-38" x="190.869141"/>
      </g>
     </g>
    </g>
    <g id="xtick_4">
     <g id="line2d_4">
      <g>
       <use xlink:href="#m52ca788f25" x="232.301536" y="318.04" style="stroke: #000000; stroke-width: 0.8"/>
      </g>
     </g>
     <g id="text_4">
      <!-- 2012 -->
      <g transform="translate(219.576536 332.638438) scale(0.1 -0.1)">
       <defs>
        <path id="DejaVuSans-31" d="M 794 531 
L 1825 531 
L 1825 4091 
L 703 3866 
L 703 4441 
L 1819 4666 
L 2450 4666 
L 2450 531 
L 3481 531 
L 3481 0 
L 794 0 
L 794 531 
z
" transform="scale(0.015625)"/>
       </defs>
       <use xlink:href="#DejaVuSans-32"/>
       <use xlink:href="#DejaVuSans-30" x="63.623047"/>
       <use xlink:href="#DejaVuSans-31" x="127.246094"/>
       <use xlink:href="#DejaVuSans-32" x="190.869141"/>
      </g>
     </g>
    </g>
    <g id="xtick_5">
     <g id="line2d_5">
      <g>
       <use xlink:href="#m52ca788f25" x="283.856629" y="318.04" style="stroke: #000000; stroke-width: 0.8"/>
      </g>
     </g>
     <g id="text_5">
      <!-- 2016 -->
      <g transform="translate(271.131629 332.638438) scale(0.1 -0.1)">
       <defs>
        <path id="DejaVuSans-36" d="M 2113 2584 
Q 1688 2584 1439 2293 
Q 1191 2003 1191 1497 
Q 1191 994 1439 701 
Q 1688 409 2113 409 
Q 2538 409 2786 701 
Q 3034 994 3034 1497 
Q 3034 2003 2786 2293 
Q 2538 2584 2113 2584 
z
M 3366 4563 
L 3366 3988 
Q 3128 4100 2886 4159 
Q 2644 4219 2406 4219 
Q 1781 4219 1451 3797 
Q 1122 3375 1075 2522 
Q 1259 2794 1537 2939 
Q 1816 3084 2150 3084 
Q 2853 3084 3261 2657 
Q 3669 2231 3669 1497 
Q 3669 778 3244 343 
Q 2819 -91 2113 -91 
Q 1303 -91 875 529 
Q 447 1150 447 2328 
Q 447 3434 972 4092 
Q 1497 4750 2381 4750 
Q 2619 4750 2861 4703 
Q 3103 4656 3366 4563 
z
" transform="scale(0.015625)"/>
       </defs>
       <use xlink:href="#DejaVuSans-32"/>
       <use xlink:href="#DejaVuSans-30" x="63.623047"/>
       <use xlink:href="#DejaVuSans-31" x="127.246094"/>
       <use xlink:href="#DejaVuSans-36" x="190.869141"/>
      </g>
     </g>
    </g>
    <g id="xtick_6">
     <g id="line2d_6">
      <g>
       <use xlink:href="#m52ca788f25" x="335.411722" y="318.04" style="stroke: #000000; stroke-width: 0.8"/>
      </g>
     </g>
     <g id="text_6">
      <!-- 2020 -->
      <g transform="translate(322.686722 332.638438) scale(0.1 -0.1)">
       <use xlink:href="#DejaVuSans-32"/>
       <use xlink:href="#DejaVuSans-30" x="63.623047"/>
       <use xlink:href="#DejaVuSans-32" x="127.246094"/>
       <use xlink:href="#DejaVuSans-30" x="190.869141"/>
      </g>
     </g>
    </g>
   </g>
   <g id="matplotlib.axis_2">
    <g id="ytick_1">
     <g id="line2d_7">
      <defs>
       <path id="mee79961fb9" d="M 0 0 
L -3.5 0 
" style="stroke: #000000; stroke-width: 0.8"/>
      </defs>
      <g>
       <use xlink:href="#mee79961fb9" x="66.510098" y="302.135891" style="stroke: #000000; stroke-width: 0.8"/>
      </g>
     </g>
     <g id="text_7">
      <!-- -30% -->
      <g transform="translate(33.675723 305.93511) scale(0.1 -0.1)">
       <defs>
        <path id="DejaVuSans-2d" d="M 313 2009 
L 1997 2009 
L 1997 1497 
L 313 1497 
L 313 2009 
z
" transform="scale(0.015625)"/>
        <path id="DejaVuSans-33" d="M 2597 2516 
Q 3050 2419 3304 2112 
Q 3559 1806 3559 1356 
Q 3559 666 3084 287 
Q 2609 -91 1734 -91 
Q 1441 -91 1130 -33 
Q 819 25 488 141 
L 488 750 
Q 750 597 1062 519 
Q 1375 441 1716 441 
Q 2309 441 2620 675 
Q 2931 909 2931 1356 
Q 2931 1769 2642 2001 
Q 2353 2234 1838 2234 
L 1294 2234 
L 1294 2753 
L 1863 2753 
Q 2328 2753 2575 2939 
Q 2822 3125 2822 3475 
Q 2822 3834 2567 4026 
Q 2313 4219 1838 4219 
Q 1578 4219 1281 4162 
Q 984 4106 628 3988 
L 628 4550 
Q 988 4650 1302 4700 
Q 1616 4750 1894 4750 
Q 2613 4750 3031 4423 
Q 3450 4097 3450 3541 
Q 3450 3153 3228 2886 
Q 3006 2619 2597 2516 
z
" transform="scale(0.015625)"/>
        <path id="DejaVuSans-25" d="M 4653 2053 
Q 4381 2053 4226 1822 
Q 4072 1591 4072 1178 
Q 4072 772 4226 539 
Q 4381 306 4653 306 
Q 4919 306 5073 539 
Q 5228 772 5228 1178 
Q 5228 1588 5073 1820 
Q 4919 2053 4653 2053 
z
M 4653 2450 
Q 5147 2450 5437 2106 
Q 5728 1763 5728 1178 
Q 5728 594 5436 251 
Q 5144 -91 4653 -91 
Q 4153 -91 3862 251 
Q 3572 594 3572 1178 
Q 3572 1766 3864 2108 
Q 4156 2450 4653 2450 
z
M 1428 4353 
Q 1159 4353 1004 4120 
Q 850 3888 850 3481 
Q 850 3069 1003 2837 
Q 1156 2606 1428 2606 
Q 1700 2606 1854 2837 
Q 2009 3069 2009 3481 
Q 2009 3884 1853 4118 
Q 1697 4353 1428 4353 
z
M 4250 4750 
L 4750 4750 
L 1831 -91 
L 1331 -91 
L 4250 4750 
z
M 1428 4750 
Q 1922 4750 2215 4408 
Q 2509 4066 2509 3481 
Q 2509 2891 2217 2550 
Q 1925 2209 1428 2209 
Q 931 2209 642 2551 
Q 353 2894 353 3481 
Q 353 4063 643 4406 
Q 934 4750 1428 4750 
z
" transform="scale(0.015625)"/>
       </defs>
       <use xlink:href="#DejaVuSans-2d"/>
       <use xlink:href="#DejaVuSans-33" x="36.083984"/>
       <use xlink:href="#DejaVuSans-30" x="99.707031"/>
       <use xlink:href="#DejaVuSans-25" x="163.330078"/>
      </g>
     </g>
    </g>
    <g id="ytick_2">
     <g id="line2d_8">
      <g>
       <use xlink:href="#mee79961fb9" x="66.510098" y="264.898716" style="stroke: #000000; stroke-width: 0.8"/>
      </g>
     </g>
     <g id="text_8">
      <!-- -20% -->
      <g transform="translate(33.675723 268.697934) scale(0.1 -0.1)">
       <use xlink:href="#DejaVuSans-2d"/>
       <use xlink:href="#DejaVuSans-32" x="36.083984"/>
       <use xlink:href="#DejaVuSans-30" x="99.707031"/>
       <use xlink:href="#DejaVuSans-25" x="163.330078"/>
      </g>
     </g>
    </g>
    <g id="ytick_3">
     <g id="line2d_9">
      <g>
       <use xlink:href="#mee79961fb9" x="66.510098" y="227.661541" style="stroke: #000000; stroke-width: 0.8"/>
      </g>
     </g>
     <g id="text_9">
      <!-- -10% -->
      <g transform="translate(33.675723 231.460759) scale(0.1 -0.1)">
       <use xlink:href="#DejaVuSans-2d"/>
       <use xlink:href="#DejaVuSans-31" x="36.083984"/>
       <use xlink:href="#DejaVuSans-30" x="99.707031"/>
       <use xlink:href="#DejaVuSans-25" x="163.330078"/>
      </g>
     </g>
    </g>
    <g id="ytick_4">
     <g id="line2d_10">
      <g>
       <use xlink:href="#mee79961fb9" x="66.510098" y="190.424365" style="stroke: #000000; stroke-width: 0.8"/>
      </g>
     </g>
     <g id="text_10">
      <!-- 0% -->
      <g transform="translate(43.646035 194.223584) scale(0.1 -0.1)">
       <use xlink:href="#DejaVuSans-30"/>
       <use xlink:href="#DejaVuSans-25" x="63.623047"/>
      </g>
     </g>
    </g>
    <g id="ytick_5">
     <g id="line2d_11">
      <g>
       <use xlink:href="#mee79961fb9" x="66.510098" y="153.18719" style="stroke: #000000; stroke-width: 0.8"/>
      </g>
     </g>
     <g id="text_11">
      <!-- 10% -->
      <g transform="translate(37.283535 156.986409) scale(0.1 -0.1)">
       <use xlink:href="#DejaVuSans-31"/>
       <use xlink:href="#DejaVuSans-30" x="63.623047"/>
       <use xlink:href="#DejaVuSans-25" x="127.246094"/>
      </g>
     </g>
    </g>
    <g id="ytick_6">
     <g id="line2d_12">
      <g>
       <use xlink:href="#mee79961fb9" x="66.510098" y="115.950015" style="stroke: #000000; stroke-width: 0.8"/>
      </g>
     </g>
     <g id="text_12">
      <!-- 20% -->
      <g transform="translate(37.283535 119.749234) scale(0.1 -0.1)">
       <use xlink:href="#DejaVuSans-32"/>
       <use xlink:href="#DejaVuSans-30" x="63.623047"/>
       <use xlink:href="#DejaVuSans-25" x="127.246094"/>
      </g>
     </g>
    </g>
    <g id="ytick_7">
     <g id="line2d_13">
      <g>
       <use xlink:href="#mee79961fb9" x="66.510098" y="78.71284" style="stroke: #000000; stroke-width: 0.8"/>
      </g>
     </g>
     <g id="text_13">
      <!-- 30% -->
      <g transform="translate(37.283535 82.512059) scale(0.1 -0.1)">
       <use xlink:href="#DejaVuSans-33"/>
       <use xlink:href="#DejaVuSans-30" x="63.623047"/>
       <use xlink:href="#DejaVuSans-25" x="127.246094"/>
      </g>
     </g>
    </g>
    <g id="ytick_8">
     <g id="line2d_14">
      <g>
       <use xlink:href="#mee79961fb9" x="66.510098" y="41.475665" style="stroke: #000000; stroke-width: 0.8"/>
      </g>
     </g>
     <g id="text_14">
      <!-- 40% -->
      <g transform="translate(37.283535 45.274884) scale(0.1 -0.1)">
       <use xlink:href="#DejaVuSans-34"/>
       <use xlink:href="#DejaVuSans-30" x="63.623047"/>
       <use xlink:href="#DejaVuSans-25" x="127.246094"/>
      </g>
     </g>
    </g>
   </g>
   <g id="line2d_15">
    <path d="M 80.847424 192.5652 
L 84.05859 181.351871 
L 87.305044 179.716413 
L 90.551497 193.077875 
L 93.727375 186.615392 
L 96.938541 190.347128 
L 100.184995 185.150458 
L 103.431448 185.884776 
L 106.607327 185.637798 
L 109.818493 185.644859 
L 113.064946 186.398744 
L 116.3114 185.564512 
L 119.487278 186.202185 
L 122.698444 186.523424 
L 125.944897 186.754285 
L 129.191351 186.049028 
L 132.402517 185.971152 
L 135.613683 185.893234 
L 138.860136 179.945572 
L 142.10659 187.404357 
L 145.282468 186.159948 
L 148.493634 186.321192 
L 151.740088 185.132339 
L 154.986541 185.504515 
L 158.162419 185.669962 
L 161.373585 184.42213 
L 164.620039 184.48734 
L 167.866492 184.368261 
L 171.042371 184.218038 
L 174.253537 184.553671 
L 177.49999 187.19957 
L 180.746444 182.091402 
L 183.95761 184.976749 
L 187.168776 185.448497 
L 190.415229 189.876529 
L 193.661683 185.360114 
L 196.837561 185.591095 
L 200.048727 184.66251 
L 203.29518 184.936829 
L 206.541634 184.372139 
L 209.717512 184.234852 
L 212.928678 184.813459 
L 216.175132 184.47379 
L 219.421585 185.013138 
L 222.597464 185.008757 
L 225.808629 184.78429 
L 229.055083 184.98427 
L 232.301536 184.821704 
L 235.512702 184.843012 
L 238.723868 185.166805 
L 241.970322 185.24232 
L 245.216775 185.242489 
L 248.392654 185.675266 
L 251.60382 185.530656 
L 254.850273 185.68863 
L 258.096727 186.014053 
L 261.272605 185.788532 
L 264.483771 186.092165 
L 267.730224 186.143058 
L 270.976678 185.858647 
L 274.152556 186.094612 
L 277.363722 185.829667 
L 280.610176 185.678167 
L 283.856629 185.921905 
L 287.067795 185.719513 
L 290.278961 185.826742 
L 293.525415 185.911906 
L 296.771868 185.766199 
L 299.947746 185.775123 
L 303.158912 185.748814 
L 306.405366 185.679311 
L 309.651819 185.658955 
L 312.827698 185.732696 
L 316.038864 185.675335 
L 319.285317 185.678673 
L 322.531771 185.782274 
L 325.707649 185.862998 
L 328.918815 186.023404 
L 332.165268 186.485155 
L 335.411722 192.753623 
L 338.622888 216.442267 
L 341.834054 177.881269 
L 345.080507 181.278433 
L 348.326961 187.177786 
L 351.502839 189.950888 
L 354.714005 189.733277 
L 357.960459 176.368687 
L 361.206912 187.523685 
L 364.38279 187.931781 
L 367.593956 188.307105 
" clip-path="url(#p148900d1ab)" style="fill: none; stroke: #575d6d; stroke-width: 1.5; stroke-linecap: square"/>
   </g>
   <g id="line2d_16">
    <path d="M 80.847424 259.194381 
L 84.05859 234.15466 
L 87.305044 243.352461 
L 90.551497 209.40657 
L 93.727375 222.353333 
L 96.938541 134.519768 
L 100.184995 227.253555 
L 103.431448 195.422516 
L 106.607327 90.198306 
L 109.818493 186.141088 
L 113.064946 254.531487 
L 116.3114 188.955966 
L 119.487278 200.499912 
L 122.698444 89.758488 
L 125.944897 116.508061 
L 129.191351 129.927691 
L 132.402517 172.899835 
L 135.613683 194.384585 
L 138.860136 136.290205 
L 142.10659 116.934071 
L 145.282468 155.381766 
L 148.493634 175.488909 
L 151.740088 208.593322 
L 154.986541 160.077165 
L 158.162419 140.337459 
L 161.373585 190.860793 
L 164.620039 134.01086 
L 167.866492 115.503911 
L 171.042371 187.816065 
L 174.253537 126.307567 
L 177.49999 150.635686 
L 180.746444 138.893344 
L 183.95761 236.537277 
L 187.168776 192.671265 
L 190.415229 304.707273 
L 193.661683 238.1698 
L 196.837561 184.100448 
L 200.048727 38.052727 
L 203.29518 114.845472 
L 206.541634 175.781458 
L 209.717512 153.614923 
L 212.928678 184.60168 
L 216.175132 103.251429 
L 219.421585 171.485976 
L 222.597464 192.425327 
L 225.808629 168.367141 
L 229.055083 245.267933 
L 232.301536 139.22497 
L 235.512702 155.531619 
L 238.723868 206.024358 
L 241.970322 167.591305 
L 245.216775 180.739315 
L 248.392654 139.783565 
L 251.60382 202.500192 
L 254.850273 224.061171 
L 258.096727 192.020973 
L 261.272605 143.382165 
L 264.483771 189.592277 
L 267.730224 170.902706 
L 270.976678 183.046633 
L 274.152556 174.50762 
L 277.363722 228.759371 
L 280.610176 239.717962 
L 283.856629 166.70364 
L 287.067795 164.321092 
L 290.278961 180.552624 
L 293.525415 153.548517 
L 296.771868 203.232943 
L 299.947746 167.075635 
L 303.158912 170.271053 
L 306.405366 190.185391 
L 309.651819 163.651512 
L 312.827698 196.220141 
L 316.038864 219.889212 
L 319.285317 177.605565 
L 322.531771 175.60531 
L 325.707649 174.072278 
L 328.918815 194.632648 
L 332.165268 204.516698 
L 335.411722 181.60798 
L 338.622888 298.133969 
L 341.834054 153.041498 
L 345.080507 186.203421 
L 348.326961 105.402065 
L 351.502839 196.123907 
L 354.714005 190.764935 
L 357.960459 176.605271 
L 361.206912 164.331816 
L 364.38279 167.326001 
L 367.593956 205.386635 
" clip-path="url(#p148900d1ab)" style="fill: none; stroke: #a59c74; stroke-width: 1.5; stroke-linecap: square"/>
   </g>
   <g id="line2d_17"/>
   <g id="line2d_18"/>
   <g id="patch_3">
    <path d="M 66.510098 318.04 
L 66.510098 24.72 
" style="fill: none; stroke: #000000; stroke-width: 0.8; stroke-linejoin: miter; stroke-linecap: square"/>
   </g>
   <g id="patch_4">
    <path d="M 66.510098 318.04 
L 381.931283 318.04 
" style="fill: none; stroke: #000000; stroke-width: 0.8; stroke-linejoin: miter; stroke-linecap: square"/>
   </g>
   <g id="text_15">
    <!-- Indonesia -->
    <g transform="translate(195.204128 18.72) scale(0.12 -0.12)">
     <defs>
      <path id="DejaVuSans-49" d="M 628 4666 
L 1259 4666 
L 1259 0 
L 628 0 
L 628 4666 
z
" transform="scale(0.015625)"/>
      <path id="DejaVuSans-6e" d="M 3513 2113 
L 3513 0 
L 2938 0 
L 2938 2094 
Q 2938 2591 2744 2837 
Q 2550 3084 2163 3084 
Q 1697 3084 1428 2787 
Q 1159 2491 1159 1978 
L 1159 0 
L 581 0 
L 581 3500 
L 1159 3500 
L 1159 2956 
Q 1366 3272 1645 3428 
Q 1925 3584 2291 3584 
Q 2894 3584 3203 3211 
Q 3513 2838 3513 2113 
z
" transform="scale(0.015625)"/>
      <path id="DejaVuSans-64" d="M 2906 2969 
L 2906 4863 
L 3481 4863 
L 3481 0 
L 2906 0 
L 2906 525 
Q 2725 213 2448 61 
Q 2172 -91 1784 -91 
Q 1150 -91 751 415 
Q 353 922 353 1747 
Q 353 2572 751 3078 
Q 1150 3584 1784 3584 
Q 2172 3584 2448 3432 
Q 2725 3281 2906 2969 
z
M 947 1747 
Q 947 1113 1208 752 
Q 1469 391 1925 391 
Q 2381 391 2643 752 
Q 2906 1113 2906 1747 
Q 2906 2381 2643 2742 
Q 2381 3103 1925 3103 
Q 1469 3103 1208 2742 
Q 947 2381 947 1747 
z
" transform="scale(0.015625)"/>
      <path id="DejaVuSans-6f" d="M 1959 3097 
Q 1497 3097 1228 2736 
Q 959 2375 959 1747 
Q 959 1119 1226 758 
Q 1494 397 1959 397 
Q 2419 397 2687 759 
Q 2956 1122 2956 1747 
Q 2956 2369 2687 2733 
Q 2419 3097 1959 3097 
z
M 1959 3584 
Q 2709 3584 3137 3096 
Q 3566 2609 3566 1747 
Q 3566 888 3137 398 
Q 2709 -91 1959 -91 
Q 1206 -91 779 398 
Q 353 888 353 1747 
Q 353 2609 779 3096 
Q 1206 3584 1959 3584 
z
" transform="scale(0.015625)"/>
      <path id="DejaVuSans-65" d="M 3597 1894 
L 3597 1613 
L 953 1613 
Q 991 1019 1311 708 
Q 1631 397 2203 397 
Q 2534 397 2845 478 
Q 3156 559 3463 722 
L 3463 178 
Q 3153 47 2828 -22 
Q 2503 -91 2169 -91 
Q 1331 -91 842 396 
Q 353 884 353 1716 
Q 353 2575 817 3079 
Q 1281 3584 2069 3584 
Q 2775 3584 3186 3129 
Q 3597 2675 3597 1894 
z
M 3022 2063 
Q 3016 2534 2758 2815 
Q 2500 3097 2075 3097 
Q 1594 3097 1305 2825 
Q 1016 2553 972 2059 
L 3022 2063 
z
" transform="scale(0.015625)"/>
      <path id="DejaVuSans-73" d="M 2834 3397 
L 2834 2853 
Q 2591 2978 2328 3040 
Q 2066 3103 1784 3103 
Q 1356 3103 1142 2972 
Q 928 2841 928 2578 
Q 928 2378 1081 2264 
Q 1234 2150 1697 2047 
L 1894 2003 
Q 2506 1872 2764 1633 
Q 3022 1394 3022 966 
Q 3022 478 2636 193 
Q 2250 -91 1575 -91 
Q 1294 -91 989 -36 
Q 684 19 347 128 
L 347 722 
Q 666 556 975 473 
Q 1284 391 1588 391 
Q 1994 391 2212 530 
Q 2431 669 2431 922 
Q 2431 1156 2273 1281 
Q 2116 1406 1581 1522 
L 1381 1569 
Q 847 1681 609 1914 
Q 372 2147 372 2553 
Q 372 3047 722 3315 
Q 1072 3584 1716 3584 
Q 2034 3584 2315 3537 
Q 2597 3491 2834 3397 
z
" transform="scale(0.015625)"/>
      <path id="DejaVuSans-69" d="M 603 3500 
L 1178 3500 
L 1178 0 
L 603 0 
L 603 3500 
z
M 603 4863 
L 1178 4863 
L 1178 4134 
L 603 4134 
L 603 4863 
z
" transform="scale(0.015625)"/>
      <path id="DejaVuSans-61" d="M 2194 1759 
Q 1497 1759 1228 1600 
Q 959 1441 959 1056 
Q 959 750 1161 570 
Q 1363 391 1709 391 
Q 2188 391 2477 730 
Q 2766 1069 2766 1631 
L 2766 1759 
L 2194 1759 
z
M 3341 1997 
L 3341 0 
L 2766 0 
L 2766 531 
Q 2569 213 2275 61 
Q 1981 -91 1556 -91 
Q 1019 -91 701 211 
Q 384 513 384 1019 
Q 384 1609 779 1909 
Q 1175 2209 1959 2209 
L 2766 2209 
L 2766 2266 
Q 2766 2663 2505 2880 
Q 2244 3097 1772 3097 
Q 1472 3097 1187 3025 
Q 903 2953 641 2809 
L 641 3341 
Q 956 3463 1253 3523 
Q 1550 3584 1831 3584 
Q 2591 3584 2966 3190 
Q 3341 2797 3341 1997 
z
" transform="scale(0.015625)"/>
     </defs>
     <use xlink:href="#DejaVuSans-49"/>
     <use xlink:href="#DejaVuSans-6e" x="29.492188"/>
     <use xlink:href="#DejaVuSans-64" x="92.871094"/>
     <use xlink:href="#DejaVuSans-6f" x="156.347656"/>
     <use xlink:href="#DejaVuSans-6e" x="217.529297"/>
     <use xlink:href="#DejaVuSans-65" x="280.908203"/>
     <use xlink:href="#DejaVuSans-73" x="342.431641"/>
     <use xlink:href="#DejaVuSans-69" x="394.53125"/>
     <use xlink:href="#DejaVuSans-61" x="422.314453"/>
    </g>
   </g>
  </g>
  <g id="axes_2">
   <g id="patch_5">
    <path d="M 396.054914 318.04 
L 711.4761 318.04 
L 711.4761 24.72 
L 396.054914 24.72 
z
" style="fill: #ffffff"/>
   </g>
   <g id="PolyCollection_3"/>
   <g id="PolyCollection_4"/>
   <g id="matplotlib.axis_3">
    <g id="xtick_7">
     <g id="line2d_19">
      <g>
       <use xlink:href="#m52ca788f25" x="407.181075" y="318.04" style="stroke: #000000; stroke-width: 0.8"/>
      </g>
     </g>
     <g id="text_16">
      <!-- 2000 -->
      <g transform="translate(394.456075 332.638438) scale(0.1 -0.1)">
       <use xlink:href="#DejaVuSans-32"/>
       <use xlink:href="#DejaVuSans-30" x="63.623047"/>
       <use xlink:href="#DejaVuSans-30" x="127.246094"/>
       <use xlink:href="#DejaVuSans-30" x="190.869141"/>
      </g>
     </g>
    </g>
    <g id="xtick_8">
     <g id="line2d_20">
      <g>
       <use xlink:href="#m52ca788f25" x="458.736168" y="318.04" style="stroke: #000000; stroke-width: 0.8"/>
      </g>
     </g>
     <g id="text_17">
      <!-- 2004 -->
      <g transform="translate(446.011168 332.638438) scale(0.1 -0.1)">
       <use xlink:href="#DejaVuSans-32"/>
       <use xlink:href="#DejaVuSans-30" x="63.623047"/>
       <use xlink:href="#DejaVuSans-30" x="127.246094"/>
       <use xlink:href="#DejaVuSans-34" x="190.869141"/>
      </g>
     </g>
    </g>
    <g id="xtick_9">
     <g id="line2d_21">
      <g>
       <use xlink:href="#m52ca788f25" x="510.291261" y="318.04" style="stroke: #000000; stroke-width: 0.8"/>
      </g>
     </g>
     <g id="text_18">
      <!-- 2008 -->
      <g transform="translate(497.566261 332.638438) scale(0.1 -0.1)">
       <use xlink:href="#DejaVuSans-32"/>
       <use xlink:href="#DejaVuSans-30" x="63.623047"/>
       <use xlink:href="#DejaVuSans-30" x="127.246094"/>
       <use xlink:href="#DejaVuSans-38" x="190.869141"/>
      </g>
     </g>
    </g>
    <g id="xtick_10">
     <g id="line2d_22">
      <g>
       <use xlink:href="#m52ca788f25" x="561.846353" y="318.04" style="stroke: #000000; stroke-width: 0.8"/>
      </g>
     </g>
     <g id="text_19">
      <!-- 2012 -->
      <g transform="translate(549.121353 332.638438) scale(0.1 -0.1)">
       <use xlink:href="#DejaVuSans-32"/>
       <use xlink:href="#DejaVuSans-30" x="63.623047"/>
       <use xlink:href="#DejaVuSans-31" x="127.246094"/>
       <use xlink:href="#DejaVuSans-32" x="190.869141"/>
      </g>
     </g>
    </g>
    <g id="xtick_11">
     <g id="line2d_23">
      <g>
       <use xlink:href="#m52ca788f25" x="613.401446" y="318.04" style="stroke: #000000; stroke-width: 0.8"/>
      </g>
     </g>
     <g id="text_20">
      <!-- 2016 -->
      <g transform="translate(600.676446 332.638438) scale(0.1 -0.1)">
       <use xlink:href="#DejaVuSans-32"/>
       <use xlink:href="#DejaVuSans-30" x="63.623047"/>
       <use xlink:href="#DejaVuSans-31" x="127.246094"/>
       <use xlink:href="#DejaVuSans-36" x="190.869141"/>
      </g>
     </g>
    </g>
    <g id="xtick_12">
     <g id="line2d_24">
      <g>
       <use xlink:href="#m52ca788f25" x="664.956539" y="318.04" style="stroke: #000000; stroke-width: 0.8"/>
      </g>
     </g>
     <g id="text_21">
      <!-- 2020 -->
      <g transform="translate(652.231539 332.638438) scale(0.1 -0.1)">
       <use xlink:href="#DejaVuSans-32"/>
       <use xlink:href="#DejaVuSans-30" x="63.623047"/>
       <use xlink:href="#DejaVuSans-32" x="127.246094"/>
       <use xlink:href="#DejaVuSans-30" x="190.869141"/>
      </g>
     </g>
    </g>
   </g>
   <g id="matplotlib.axis_4">
    <g id="ytick_9">
     <g id="line2d_25">
      <g>
       <use xlink:href="#mee79961fb9" x="396.054914" y="302.135891" style="stroke: #000000; stroke-width: 0.8"/>
      </g>
     </g>
    </g>
    <g id="ytick_10">
     <g id="line2d_26">
      <g>
       <use xlink:href="#mee79961fb9" x="396.054914" y="264.898716" style="stroke: #000000; stroke-width: 0.8"/>
      </g>
     </g>
    </g>
    <g id="ytick_11">
     <g id="line2d_27">
      <g>
       <use xlink:href="#mee79961fb9" x="396.054914" y="227.661541" style="stroke: #000000; stroke-width: 0.8"/>
      </g>
     </g>
    </g>
    <g id="ytick_12">
     <g id="line2d_28">
      <g>
       <use xlink:href="#mee79961fb9" x="396.054914" y="190.424365" style="stroke: #000000; stroke-width: 0.8"/>
      </g>
     </g>
    </g>
    <g id="ytick_13">
     <g id="line2d_29">
      <g>
       <use xlink:href="#mee79961fb9" x="396.054914" y="153.18719" style="stroke: #000000; stroke-width: 0.8"/>
      </g>
     </g>
    </g>
    <g id="ytick_14">
     <g id="line2d_30">
      <g>
       <use xlink:href="#mee79961fb9" x="396.054914" y="115.950015" style="stroke: #000000; stroke-width: 0.8"/>
      </g>
     </g>
    </g>
    <g id="ytick_15">
     <g id="line2d_31">
      <g>
       <use xlink:href="#mee79961fb9" x="396.054914" y="78.71284" style="stroke: #000000; stroke-width: 0.8"/>
      </g>
     </g>
    </g>
    <g id="ytick_16">
     <g id="line2d_32">
      <g>
       <use xlink:href="#mee79961fb9" x="396.054914" y="41.475665" style="stroke: #000000; stroke-width: 0.8"/>
      </g>
     </g>
    </g>
   </g>
   <g id="line2d_33">
    <path d="M 410.392241 184.813707 
L 413.603407 186.624285 
L 416.849861 193.636039 
L 420.096314 190.324062 
L 423.272192 192.427675 
L 426.483358 189.606664 
L 429.729812 192.78937 
L 432.976265 192.960734 
L 436.152144 186.982496 
L 439.36331 187.527289 
L 442.609763 189.545791 
L 445.856217 189.541043 
L 449.032095 189.571788 
L 452.243261 190.564744 
L 455.489714 186.32731 
L 458.736168 185.180205 
L 461.947334 184.681633 
L 465.1585 191.217569 
L 468.404953 185.486133 
L 471.651407 189.831208 
L 474.827285 189.3305 
L 478.038451 187.299046 
L 481.284905 184.203353 
L 484.531358 183.881583 
L 487.707236 186.806493 
L 490.918402 189.381597 
L 494.164856 189.498307 
L 497.411309 187.816478 
L 500.587188 187.549151 
L 503.798354 188.080658 
L 507.044807 188.961688 
L 510.291261 191.179515 
L 513.502427 187.547214 
L 516.713593 189.246406 
L 519.960046 196.502836 
L 523.2065 209.505104 
L 526.382378 195.921466 
L 529.593544 178.149108 
L 532.839997 184.247996 
L 536.086451 186.526281 
L 539.262329 186.303413 
L 542.473495 186.92763 
L 545.719949 187.545456 
L 548.966402 187.595606 
L 552.142281 188.428037 
L 555.353446 183.189271 
L 558.5999 187.984935 
L 561.846353 187.99157 
L 565.057519 187.188366 
L 568.268685 188.31826 
L 571.515139 187.242302 
L 574.761592 189.513643 
L 577.937471 192.472804 
L 581.148637 186.949966 
L 584.39509 188.344809 
L 587.641544 187.853501 
L 590.817422 185.731175 
L 594.028588 189.063027 
L 597.275041 186.535733 
L 600.521495 188.390299 
L 603.697373 186.105897 
L 606.908539 185.483977 
L 610.154993 191.694006 
L 613.401446 188.273158 
L 616.612612 188.86537 
L 619.823778 186.450597 
L 623.070232 186.580614 
L 626.316685 188.636601 
L 629.492563 189.296387 
L 632.703729 191.298345 
L 635.950183 185.665161 
L 639.196636 186.224119 
L 642.372515 190.573949 
L 645.583681 188.692521 
L 648.830134 191.472207 
L 652.076588 190.23774 
L 655.252466 192.130453 
L 658.463632 188.277109 
L 661.710085 193.265009 
L 664.956539 193.886106 
L 668.167705 257.299367 
L 671.378871 139.582311 
L 674.625324 176.777163 
L 677.871778 188.615381 
L 681.047656 186.898625 
L 684.258822 192.394042 
L 687.505276 189.267898 
L 690.751729 186.172212 
L 693.927607 186.982245 
L 697.138773 183.856055 
" clip-path="url(#pccaa954c60)" style="fill: none; stroke: #575d6d; stroke-width: 1.5; stroke-linecap: square"/>
   </g>
   <g id="line2d_34">
    <path d="M 410.392241 174.582404 
L 413.603407 190.699385 
L 416.849861 247.427271 
L 420.096314 231.446585 
L 423.272192 181.21947 
L 426.483358 118.289502 
L 429.729812 267.757769 
L 432.976265 119.583514 
L 436.152144 134.549266 
L 439.36331 241.383297 
L 442.609763 215.962304 
L 445.856217 171.654563 
L 449.032095 210.141761 
L 452.243261 112.878687 
L 455.489714 147.892619 
L 458.736168 149.091887 
L 461.947334 114.681428 
L 465.1585 202.737843 
L 468.404953 160.764435 
L 471.651407 125.062167 
L 474.827285 199.249263 
L 478.038451 167.14227 
L 481.284905 120.358572 
L 484.531358 146.933187 
L 487.707236 154.933337 
L 490.918402 182.333524 
L 494.164856 161.483379 
L 497.411309 103.540539 
L 500.587188 155.412873 
L 503.798354 161.713919 
L 507.044807 197.120389 
L 510.291261 216.450116 
L 513.502427 150.350219 
L 516.713593 220.490048 
L 519.960046 242.719954 
L 523.2065 218.093699 
L 526.382378 244.405497 
L 529.593544 103.446072 
L 532.839997 128.712928 
L 536.086451 136.105195 
L 539.262329 180.303477 
L 542.473495 217.557511 
L 545.719949 159.265811 
L 548.966402 137.573372 
L 552.142281 198.437165 
L 555.353446 200.029139 
L 558.5999 227.527651 
L 561.846353 142.65599 
L 565.057519 165.281739 
L 568.268685 185.514851 
L 571.515139 184.071413 
L 574.761592 161.633828 
L 577.937471 193.548063 
L 581.148637 213.78182 
L 584.39509 188.991294 
L 587.641544 182.738435 
L 590.817422 205.591967 
L 594.028588 168.315518 
L 597.275041 177.464558 
L 600.521495 209.305197 
L 603.697373 171.967588 
L 606.908539 184.311994 
L 610.154993 208.929864 
L 613.401446 195.500631 
L 616.612612 155.505112 
L 619.823778 189.208958 
L 623.070232 179.234986 
L 626.316685 205.340755 
L 629.492563 164.966982 
L 632.703729 180.584092 
L 635.950183 187.511331 
L 639.196636 193.869359 
L 642.372515 221.736762 
L 645.583681 183.705428 
L 648.830134 164.979292 
L 652.076588 246.983219 
L 655.252466 178.083504 
L 658.463632 192.418045 
L 661.710085 194.719828 
L 664.956539 177.415033 
L 668.167705 280.467452 
L 671.378871 147.012257 
L 674.625324 200.259911 
L 677.871778 108.30792 
L 681.047656 160.912748 
L 684.258822 173.976552 
L 687.505276 185.374639 
L 690.751729 176.706856 
L 693.927607 164.621006 
L 697.138773 248.746575 
" clip-path="url(#pccaa954c60)" style="fill: none; stroke: #a59c74; stroke-width: 1.5; stroke-linecap: square"/>
   </g>
   <g id="patch_6">
    <path d="M 396.054914 318.04 
L 396.054914 24.72 
" style="fill: none; stroke: #000000; stroke-width: 0.8; stroke-linejoin: miter; stroke-linecap: square"/>
   </g>
   <g id="patch_7">
    <path d="M 396.054914 318.04 
L 711.4761 318.04 
" style="fill: none; stroke: #000000; stroke-width: 0.8; stroke-linejoin: miter; stroke-linecap: square"/>
   </g>
   <g id="text_22">
    <!-- Mexico -->
    <g transform="translate(532.81332 18.72) scale(0.12 -0.12)">
     <defs>
      <path id="DejaVuSans-4d" d="M 628 4666 
L 1569 4666 
L 2759 1491 
L 3956 4666 
L 4897 4666 
L 4897 0 
L 4281 0 
L 4281 4097 
L 3078 897 
L 2444 897 
L 1241 4097 
L 1241 0 
L 628 0 
L 628 4666 
z
" transform="scale(0.015625)"/>
      <path id="DejaVuSans-78" d="M 3513 3500 
L 2247 1797 
L 3578 0 
L 2900 0 
L 1881 1375 
L 863 0 
L 184 0 
L 1544 1831 
L 300 3500 
L 978 3500 
L 1906 2253 
L 2834 3500 
L 3513 3500 
z
" transform="scale(0.015625)"/>
      <path id="DejaVuSans-63" d="M 3122 3366 
L 3122 2828 
Q 2878 2963 2633 3030 
Q 2388 3097 2138 3097 
Q 1578 3097 1268 2742 
Q 959 2388 959 1747 
Q 959 1106 1268 751 
Q 1578 397 2138 397 
Q 2388 397 2633 464 
Q 2878 531 3122 666 
L 3122 134 
Q 2881 22 2623 -34 
Q 2366 -91 2075 -91 
Q 1284 -91 818 406 
Q 353 903 353 1747 
Q 353 2603 823 3093 
Q 1294 3584 2113 3584 
Q 2378 3584 2631 3529 
Q 2884 3475 3122 3366 
z
" transform="scale(0.015625)"/>
     </defs>
     <use xlink:href="#DejaVuSans-4d"/>
     <use xlink:href="#DejaVuSans-65" x="86.279297"/>
     <use xlink:href="#DejaVuSans-78" x="146.052734"/>
     <use xlink:href="#DejaVuSans-69" x="205.232422"/>
     <use xlink:href="#DejaVuSans-63" x="233.015625"/>
     <use xlink:href="#DejaVuSans-6f" x="287.996094"/>
    </g>
   </g>
  </g>
  <g id="legend_1">
   <g id="text_23">
    <!-- Variable -->
    <g transform="translate(760.967344 168.08125) scale(0.1 -0.1)">
     <defs>
      <path id="DejaVuSans-56" d="M 1831 0 
L 50 4666 
L 709 4666 
L 2188 738 
L 3669 4666 
L 4325 4666 
L 2547 0 
L 1831 0 
z
" transform="scale(0.015625)"/>
      <path id="DejaVuSans-72" d="M 2631 2963 
Q 2534 3019 2420 3045 
Q 2306 3072 2169 3072 
Q 1681 3072 1420 2755 
Q 1159 2438 1159 1844 
L 1159 0 
L 581 0 
L 581 3500 
L 1159 3500 
L 1159 2956 
Q 1341 3275 1631 3429 
Q 1922 3584 2338 3584 
Q 2397 3584 2469 3576 
Q 2541 3569 2628 3553 
L 2631 2963 
z
" transform="scale(0.015625)"/>
      <path id="DejaVuSans-62" d="M 3116 1747 
Q 3116 2381 2855 2742 
Q 2594 3103 2138 3103 
Q 1681 3103 1420 2742 
Q 1159 2381 1159 1747 
Q 1159 1113 1420 752 
Q 1681 391 2138 391 
Q 2594 391 2855 752 
Q 3116 1113 3116 1747 
z
M 1159 2969 
Q 1341 3281 1617 3432 
Q 1894 3584 2278 3584 
Q 2916 3584 3314 3078 
Q 3713 2572 3713 1747 
Q 3713 922 3314 415 
Q 2916 -91 2278 -91 
Q 1894 -91 1617 61 
Q 1341 213 1159 525 
L 1159 0 
L 581 0 
L 581 4863 
L 1159 4863 
L 1159 2969 
z
" transform="scale(0.015625)"/>
      <path id="DejaVuSans-6c" d="M 603 4863 
L 1178 4863 
L 1178 0 
L 603 0 
L 603 4863 
z
" transform="scale(0.015625)"/>
     </defs>
     <use xlink:href="#DejaVuSans-56"/>
     <use xlink:href="#DejaVuSans-61" x="60.658203"/>
     <use xlink:href="#DejaVuSans-72" x="121.9375"/>
     <use xlink:href="#DejaVuSans-69" x="163.050781"/>
     <use xlink:href="#DejaVuSans-61" x="190.833984"/>
     <use xlink:href="#DejaVuSans-62" x="252.113281"/>
     <use xlink:href="#DejaVuSans-6c" x="315.589844"/>
     <use xlink:href="#DejaVuSans-65" x="343.373047"/>
    </g>
   </g>
   <g id="line2d_35">
    <path d="M 719.035313 179.259375 
L 729.035313 179.259375 
L 739.035313 179.259375 
" style="fill: none; stroke: #575d6d; stroke-width: 1.5; stroke-linecap: square"/>
   </g>
   <g id="text_24">
    <!-- GDP growth -->
    <g transform="translate(747.035313 182.759375) scale(0.1 -0.1)">
     <defs>
      <path id="DejaVuSans-47" d="M 3809 666 
L 3809 1919 
L 2778 1919 
L 2778 2438 
L 4434 2438 
L 4434 434 
Q 4069 175 3628 42 
Q 3188 -91 2688 -91 
Q 1594 -91 976 548 
Q 359 1188 359 2328 
Q 359 3472 976 4111 
Q 1594 4750 2688 4750 
Q 3144 4750 3555 4637 
Q 3966 4525 4313 4306 
L 4313 3634 
Q 3963 3931 3569 4081 
Q 3175 4231 2741 4231 
Q 1884 4231 1454 3753 
Q 1025 3275 1025 2328 
Q 1025 1384 1454 906 
Q 1884 428 2741 428 
Q 3075 428 3337 486 
Q 3600 544 3809 666 
z
" transform="scale(0.015625)"/>
      <path id="DejaVuSans-44" d="M 1259 4147 
L 1259 519 
L 2022 519 
Q 2988 519 3436 956 
Q 3884 1394 3884 2338 
Q 3884 3275 3436 3711 
Q 2988 4147 2022 4147 
L 1259 4147 
z
M 628 4666 
L 1925 4666 
Q 3281 4666 3915 4102 
Q 4550 3538 4550 2338 
Q 4550 1131 3912 565 
Q 3275 0 1925 0 
L 628 0 
L 628 4666 
z
" transform="scale(0.015625)"/>
      <path id="DejaVuSans-50" d="M 1259 4147 
L 1259 2394 
L 2053 2394 
Q 2494 2394 2734 2622 
Q 2975 2850 2975 3272 
Q 2975 3691 2734 3919 
Q 2494 4147 2053 4147 
L 1259 4147 
z
M 628 4666 
L 2053 4666 
Q 2838 4666 3239 4311 
Q 3641 3956 3641 3272 
Q 3641 2581 3239 2228 
Q 2838 1875 2053 1875 
L 1259 1875 
L 1259 0 
L 628 0 
L 628 4666 
z
" transform="scale(0.015625)"/>
      <path id="DejaVuSans-20" transform="scale(0.015625)"/>
      <path id="DejaVuSans-67" d="M 2906 1791 
Q 2906 2416 2648 2759 
Q 2391 3103 1925 3103 
Q 1463 3103 1205 2759 
Q 947 2416 947 1791 
Q 947 1169 1205 825 
Q 1463 481 1925 481 
Q 2391 481 2648 825 
Q 2906 1169 2906 1791 
z
M 3481 434 
Q 3481 -459 3084 -895 
Q 2688 -1331 1869 -1331 
Q 1566 -1331 1297 -1286 
Q 1028 -1241 775 -1147 
L 775 -588 
Q 1028 -725 1275 -790 
Q 1522 -856 1778 -856 
Q 2344 -856 2625 -561 
Q 2906 -266 2906 331 
L 2906 616 
Q 2728 306 2450 153 
Q 2172 0 1784 0 
Q 1141 0 747 490 
Q 353 981 353 1791 
Q 353 2603 747 3093 
Q 1141 3584 1784 3584 
Q 2172 3584 2450 3431 
Q 2728 3278 2906 2969 
L 2906 3500 
L 3481 3500 
L 3481 434 
z
" transform="scale(0.015625)"/>
      <path id="DejaVuSans-77" d="M 269 3500 
L 844 3500 
L 1563 769 
L 2278 3500 
L 2956 3500 
L 3675 769 
L 4391 3500 
L 4966 3500 
L 4050 0 
L 3372 0 
L 2619 2869 
L 1863 0 
L 1184 0 
L 269 3500 
z
" transform="scale(0.015625)"/>
      <path id="DejaVuSans-74" d="M 1172 4494 
L 1172 3500 
L 2356 3500 
L 2356 3053 
L 1172 3053 
L 1172 1153 
Q 1172 725 1289 603 
Q 1406 481 1766 481 
L 2356 481 
L 2356 0 
L 1766 0 
Q 1100 0 847 248 
Q 594 497 594 1153 
L 594 3053 
L 172 3053 
L 172 3500 
L 594 3500 
L 594 4494 
L 1172 4494 
z
" transform="scale(0.015625)"/>
      <path id="DejaVuSans-68" d="M 3513 2113 
L 3513 0 
L 2938 0 
L 2938 2094 
Q 2938 2591 2744 2837 
Q 2550 3084 2163 3084 
Q 1697 3084 1428 2787 
Q 1159 2491 1159 1978 
L 1159 0 
L 581 0 
L 581 4863 
L 1159 4863 
L 1159 2956 
Q 1366 3272 1645 3428 
Q 1925 3584 2291 3584 
Q 2894 3584 3203 3211 
Q 3513 2838 3513 2113 
z
" transform="scale(0.015625)"/>
     </defs>
     <use xlink:href="#DejaVuSans-47"/>
     <use xlink:href="#DejaVuSans-44" x="77.490234"/>
     <use xlink:href="#DejaVuSans-50" x="154.492188"/>
     <use xlink:href="#DejaVuSans-20" x="214.794922"/>
     <use xlink:href="#DejaVuSans-67" x="246.582031"/>
     <use xlink:href="#DejaVuSans-72" x="310.058594"/>
     <use xlink:href="#DejaVuSans-6f" x="348.921875"/>
     <use xlink:href="#DejaVuSans-77" x="410.103516"/>
     <use xlink:href="#DejaVuSans-74" x="491.890625"/>
     <use xlink:href="#DejaVuSans-68" x="531.099609"/>
    </g>
   </g>
   <g id="line2d_36">
    <path d="M 719.035313 193.9375 
L 729.035313 193.9375 
L 739.035313 193.9375 
" style="fill: none; stroke: #a59c74; stroke-width: 1.5; stroke-linecap: square"/>
   </g>
   <g id="text_25">
    <!-- Stock Index growth -->
    <g transform="translate(747.035313 197.4375) scale(0.1 -0.1)">
     <defs>
      <path id="DejaVuSans-53" d="M 3425 4513 
L 3425 3897 
Q 3066 4069 2747 4153 
Q 2428 4238 2131 4238 
Q 1616 4238 1336 4038 
Q 1056 3838 1056 3469 
Q 1056 3159 1242 3001 
Q 1428 2844 1947 2747 
L 2328 2669 
Q 3034 2534 3370 2195 
Q 3706 1856 3706 1288 
Q 3706 609 3251 259 
Q 2797 -91 1919 -91 
Q 1588 -91 1214 -16 
Q 841 59 441 206 
L 441 856 
Q 825 641 1194 531 
Q 1563 422 1919 422 
Q 2459 422 2753 634 
Q 3047 847 3047 1241 
Q 3047 1584 2836 1778 
Q 2625 1972 2144 2069 
L 1759 2144 
Q 1053 2284 737 2584 
Q 422 2884 422 3419 
Q 422 4038 858 4394 
Q 1294 4750 2059 4750 
Q 2388 4750 2728 4690 
Q 3069 4631 3425 4513 
z
" transform="scale(0.015625)"/>
      <path id="DejaVuSans-6b" d="M 581 4863 
L 1159 4863 
L 1159 1991 
L 2875 3500 
L 3609 3500 
L 1753 1863 
L 3688 0 
L 2938 0 
L 1159 1709 
L 1159 0 
L 581 0 
L 581 4863 
z
" transform="scale(0.015625)"/>
     </defs>
     <use xlink:href="#DejaVuSans-53"/>
     <use xlink:href="#DejaVuSans-74" x="63.476562"/>
     <use xlink:href="#DejaVuSans-6f" x="102.685547"/>
     <use xlink:href="#DejaVuSans-63" x="163.867188"/>
     <use xlink:href="#DejaVuSans-6b" x="218.847656"/>
     <use xlink:href="#DejaVuSans-20" x="276.757812"/>
     <use xlink:href="#DejaVuSans-49" x="308.544922"/>
     <use xlink:href="#DejaVuSans-6e" x="338.037109"/>
     <use xlink:href="#DejaVuSans-64" x="401.416016"/>
     <use xlink:href="#DejaVuSans-65" x="464.892578"/>
     <use xlink:href="#DejaVuSans-78" x="524.666016"/>
     <use xlink:href="#DejaVuSans-20" x="583.845703"/>
     <use xlink:href="#DejaVuSans-67" x="615.632812"/>
     <use xlink:href="#DejaVuSans-72" x="679.109375"/>
     <use xlink:href="#DejaVuSans-6f" x="717.972656"/>
     <use xlink:href="#DejaVuSans-77" x="779.154297"/>
     <use xlink:href="#DejaVuSans-74" x="860.941406"/>
     <use xlink:href="#DejaVuSans-68" x="900.150391"/>
    </g>
   </g>
  </g>
 </g>
 <defs>
  <clipPath id="p148900d1ab">
   <rect x="66.510098" y="24.72" width="315.421186" height="293.32"/>
  </clipPath>
  <clipPath id="pccaa954c60">
   <rect x="396.054914" y="24.72" width="315.421186" height="293.32"/>
  </clipPath>
 </defs>
</svg>
