<?xml version="1.0" encoding="utf-8" standalone="no"?>
<!DOCTYPE svg PUBLIC "-//W3C//DTD SVG 1.1//EN"
  "http://www.w3.org/Graphics/SVG/1.1/DTD/svg11.dtd">
<svg xmlns:xlink="http://www.w3.org/1999/xlink" width="1214.91pt" height="360pt" viewBox="0 0 1214.91 360" xmlns="http://www.w3.org/2000/svg" version="1.1">
 <metadata>
  <rdf:RDF xmlns:dc="http://purl.org/dc/elements/1.1/" xmlns:cc="http://creativecommons.org/ns#" xmlns:rdf="http://www.w3.org/1999/02/22-rdf-syntax-ns#">
   <cc:Work>
    <dc:type rdf:resource="http://purl.org/dc/dcmitype/StillImage"/>
    <dc:date>2022-12-17T18:13:42.683542</dc:date>
    <dc:format>image/svg+xml</dc:format>
    <dc:creator>
     <cc:Agent>
      <dc:title>Matplotlib v3.6.2, https://matplotlib.org/</dc:title>
     </cc:Agent>
    </dc:creator>
   </cc:Work>
  </rdf:RDF>
 </metadata>
 <defs>
  <style type="text/css">*{stroke-linejoin: round; stroke-linecap: butt}</style>
 </defs>
 <g id="figure_1">
  <g id="patch_1">
   <path d="M 0 360 
L 1214.91 360 
L 1214.91 0 
L 0 0 
z
" style="fill: #ffffff"/>
  </g>
  <g id="axes_1">
   <g id="patch_2">
    <path d="M 63.197818 318.04 
L 388.627585 318.04 
L 388.627585 24.72 
L 63.197818 24.72 
z
" style="fill: #ffffff"/>
   </g>
   <g id="PolyCollection_1"/>
   <g id="PolyCollection_2"/>
   <g id="matplotlib.axis_1">
    <g id="xtick_1">
     <g id="line2d_1">
      <defs>
       <path id="m167b72f539" d="M 0 0 
L 0 3.5 
" style="stroke: #000000; stroke-width: 0.8"/>
      </defs>
      <g>
       <use xlink:href="#m167b72f539" x="74.677022" y="318.04" style="stroke: #000000; stroke-width: 0.8"/>
      </g>
     </g>
     <g id="text_1">
      <!-- 2000 -->
      <g transform="translate(61.952022 332.638438) scale(0.1 -0.1)">
       <defs>
        <path id="DejaVuSans-32" d="M 1228 531 
L 3431 531 
L 3431 0 
L 469 0 
L 469 531 
Q 828 903 1448 1529 
Q 2069 2156 2228 2338 
Q 2531 2678 2651 2914 
Q 2772 3150 2772 3378 
Q 2772 3750 2511 3984 
Q 2250 4219 1831 4219 
Q 1534 4219 1204 4116 
Q 875 4013 500 3803 
L 500 4441 
Q 881 4594 1212 4672 
Q 1544 4750 1819 4750 
Q 2544 4750 2975 4387 
Q 3406 4025 3406 3419 
Q 3406 3131 3298 2873 
Q 3191 2616 2906 2266 
Q 2828 2175 2409 1742 
Q 1991 1309 1228 531 
z
" transform="scale(0.015625)"/>
        <path id="DejaVuSans-30" d="M 2034 4250 
Q 1547 4250 1301 3770 
Q 1056 3291 1056 2328 
Q 1056 1369 1301 889 
Q 1547 409 2034 409 
Q 2525 409 2770 889 
Q 3016 1369 3016 2328 
Q 3016 3291 2770 3770 
Q 2525 4250 2034 4250 
z
M 2034 4750 
Q 2819 4750 3233 4129 
Q 3647 3509 3647 2328 
Q 3647 1150 3233 529 
Q 2819 -91 2034 -91 
Q 1250 -91 836 529 
Q 422 1150 422 2328 
Q 422 3509 836 4129 
Q 1250 4750 2034 4750 
z
" transform="scale(0.015625)"/>
       </defs>
       <use xlink:href="#DejaVuSans-32"/>
       <use xlink:href="#DejaVuSans-30" x="63.623047"/>
       <use xlink:href="#DejaVuSans-30" x="127.246094"/>
       <use xlink:href="#DejaVuSans-30" x="190.869141"/>
      </g>
     </g>
    </g>
    <g id="xtick_2">
     <g id="line2d_2">
      <g>
       <use xlink:href="#m167b72f539" x="127.868001" y="318.04" style="stroke: #000000; stroke-width: 0.8"/>
      </g>
     </g>
     <g id="text_2">
      <!-- 2004 -->
      <g transform="translate(115.143001 332.638438) scale(0.1 -0.1)">
       <defs>
        <path id="DejaVuSans-34" d="M 2419 4116 
L 825 1625 
L 2419 1625 
L 2419 4116 
z
M 2253 4666 
L 3047 4666 
L 3047 1625 
L 3713 1625 
L 3713 1100 
L 3047 1100 
L 3047 0 
L 2419 0 
L 2419 1100 
L 313 1100 
L 313 1709 
L 2253 4666 
z
" transform="scale(0.015625)"/>
       </defs>
       <use xlink:href="#DejaVuSans-32"/>
       <use xlink:href="#DejaVuSans-30" x="63.623047"/>
       <use xlink:href="#DejaVuSans-30" x="127.246094"/>
       <use xlink:href="#DejaVuSans-34" x="190.869141"/>
      </g>
     </g>
    </g>
    <g id="xtick_3">
     <g id="line2d_3">
      <g>
       <use xlink:href="#m167b72f539" x="181.05898" y="318.04" style="stroke: #000000; stroke-width: 0.8"/>
      </g>
     </g>
     <g id="text_3">
      <!-- 2008 -->
      <g transform="translate(168.33398 332.638438) scale(0.1 -0.1)">
       <defs>
        <path id="DejaVuSans-38" d="M 2034 2216 
Q 1584 2216 1326 1975 
Q 1069 1734 1069 1313 
Q 1069 891 1326 650 
Q 1584 409 2034 409 
Q 2484 409 2743 651 
Q 3003 894 3003 1313 
Q 3003 1734 2745 1975 
Q 2488 2216 2034 2216 
z
M 1403 2484 
Q 997 2584 770 2862 
Q 544 3141 544 3541 
Q 544 4100 942 4425 
Q 1341 4750 2034 4750 
Q 2731 4750 3128 4425 
Q 3525 4100 3525 3541 
Q 3525 3141 3298 2862 
Q 3072 2584 2669 2484 
Q 3125 2378 3379 2068 
Q 3634 1759 3634 1313 
Q 3634 634 3220 271 
Q 2806 -91 2034 -91 
Q 1263 -91 848 271 
Q 434 634 434 1313 
Q 434 1759 690 2068 
Q 947 2378 1403 2484 
z
M 1172 3481 
Q 1172 3119 1398 2916 
Q 1625 2713 2034 2713 
Q 2441 2713 2670 2916 
Q 2900 3119 2900 3481 
Q 2900 3844 2670 4047 
Q 2441 4250 2034 4250 
Q 1625 4250 1398 4047 
Q 1172 3844 1172 3481 
z
" transform="scale(0.015625)"/>
       </defs>
       <use xlink:href="#DejaVuSans-32"/>
       <use xlink:href="#DejaVuSans-30" x="63.623047"/>
       <use xlink:href="#DejaVuSans-30" x="127.246094"/>
       <use xlink:href="#DejaVuSans-38" x="190.869141"/>
      </g>
     </g>
    </g>
    <g id="xtick_4">
     <g id="line2d_4">
      <g>
       <use xlink:href="#m167b72f539" x="234.24996" y="318.04" style="stroke: #000000; stroke-width: 0.8"/>
      </g>
     </g>
     <g id="text_4">
      <!-- 2012 -->
      <g transform="translate(221.52496 332.638438) scale(0.1 -0.1)">
       <defs>
        <path id="DejaVuSans-31" d="M 794 531 
L 1825 531 
L 1825 4091 
L 703 3866 
L 703 4441 
L 1819 4666 
L 2450 4666 
L 2450 531 
L 3481 531 
L 3481 0 
L 794 0 
L 794 531 
z
" transform="scale(0.015625)"/>
       </defs>
       <use xlink:href="#DejaVuSans-32"/>
       <use xlink:href="#DejaVuSans-30" x="63.623047"/>
       <use xlink:href="#DejaVuSans-31" x="127.246094"/>
       <use xlink:href="#DejaVuSans-32" x="190.869141"/>
      </g>
     </g>
    </g>
    <g id="xtick_5">
     <g id="line2d_5">
      <g>
       <use xlink:href="#m167b72f539" x="287.440939" y="318.04" style="stroke: #000000; stroke-width: 0.8"/>
      </g>
     </g>
     <g id="text_5">
      <!-- 2016 -->
      <g transform="translate(274.715939 332.638438) scale(0.1 -0.1)">
       <defs>
        <path id="DejaVuSans-36" d="M 2113 2584 
Q 1688 2584 1439 2293 
Q 1191 2003 1191 1497 
Q 1191 994 1439 701 
Q 1688 409 2113 409 
Q 2538 409 2786 701 
Q 3034 994 3034 1497 
Q 3034 2003 2786 2293 
Q 2538 2584 2113 2584 
z
M 3366 4563 
L 3366 3988 
Q 3128 4100 2886 4159 
Q 2644 4219 2406 4219 
Q 1781 4219 1451 3797 
Q 1122 3375 1075 2522 
Q 1259 2794 1537 2939 
Q 1816 3084 2150 3084 
Q 2853 3084 3261 2657 
Q 3669 2231 3669 1497 
Q 3669 778 3244 343 
Q 2819 -91 2113 -91 
Q 1303 -91 875 529 
Q 447 1150 447 2328 
Q 447 3434 972 4092 
Q 1497 4750 2381 4750 
Q 2619 4750 2861 4703 
Q 3103 4656 3366 4563 
z
" transform="scale(0.015625)"/>
       </defs>
       <use xlink:href="#DejaVuSans-32"/>
       <use xlink:href="#DejaVuSans-30" x="63.623047"/>
       <use xlink:href="#DejaVuSans-31" x="127.246094"/>
       <use xlink:href="#DejaVuSans-36" x="190.869141"/>
      </g>
     </g>
    </g>
    <g id="xtick_6">
     <g id="line2d_6">
      <g>
       <use xlink:href="#m167b72f539" x="340.631919" y="318.04" style="stroke: #000000; stroke-width: 0.8"/>
      </g>
     </g>
     <g id="text_6">
      <!-- 2020 -->
      <g transform="translate(327.906919 332.638438) scale(0.1 -0.1)">
       <use xlink:href="#DejaVuSans-32"/>
       <use xlink:href="#DejaVuSans-30" x="63.623047"/>
       <use xlink:href="#DejaVuSans-32" x="127.246094"/>
       <use xlink:href="#DejaVuSans-30" x="190.869141"/>
      </g>
     </g>
    </g>
    <g id="text_7">
     <!-- date -->
     <g transform="translate(214.637702 346.316563) scale(0.1 -0.1)">
      <defs>
       <path id="DejaVuSans-64" d="M 2906 2969 
L 2906 4863 
L 3481 4863 
L 3481 0 
L 2906 0 
L 2906 525 
Q 2725 213 2448 61 
Q 2172 -91 1784 -91 
Q 1150 -91 751 415 
Q 353 922 353 1747 
Q 353 2572 751 3078 
Q 1150 3584 1784 3584 
Q 2172 3584 2448 3432 
Q 2725 3281 2906 2969 
z
M 947 1747 
Q 947 1113 1208 752 
Q 1469 391 1925 391 
Q 2381 391 2643 752 
Q 2906 1113 2906 1747 
Q 2906 2381 2643 2742 
Q 2381 3103 1925 3103 
Q 1469 3103 1208 2742 
Q 947 2381 947 1747 
z
" transform="scale(0.015625)"/>
       <path id="DejaVuSans-61" d="M 2194 1759 
Q 1497 1759 1228 1600 
Q 959 1441 959 1056 
Q 959 750 1161 570 
Q 1363 391 1709 391 
Q 2188 391 2477 730 
Q 2766 1069 2766 1631 
L 2766 1759 
L 2194 1759 
z
M 3341 1997 
L 3341 0 
L 2766 0 
L 2766 531 
Q 2569 213 2275 61 
Q 1981 -91 1556 -91 
Q 1019 -91 701 211 
Q 384 513 384 1019 
Q 384 1609 779 1909 
Q 1175 2209 1959 2209 
L 2766 2209 
L 2766 2266 
Q 2766 2663 2505 2880 
Q 2244 3097 1772 3097 
Q 1472 3097 1187 3025 
Q 903 2953 641 2809 
L 641 3341 
Q 956 3463 1253 3523 
Q 1550 3584 1831 3584 
Q 2591 3584 2966 3190 
Q 3341 2797 3341 1997 
z
" transform="scale(0.015625)"/>
       <path id="DejaVuSans-74" d="M 1172 4494 
L 1172 3500 
L 2356 3500 
L 2356 3053 
L 1172 3053 
L 1172 1153 
Q 1172 725 1289 603 
Q 1406 481 1766 481 
L 2356 481 
L 2356 0 
L 1766 0 
Q 1100 0 847 248 
Q 594 497 594 1153 
L 594 3053 
L 172 3053 
L 172 3500 
L 594 3500 
L 594 4494 
L 1172 4494 
z
" transform="scale(0.015625)"/>
       <path id="DejaVuSans-65" d="M 3597 1894 
L 3597 1613 
L 953 1613 
Q 991 1019 1311 708 
Q 1631 397 2203 397 
Q 2534 397 2845 478 
Q 3156 559 3463 722 
L 3463 178 
Q 3153 47 2828 -22 
Q 2503 -91 2169 -91 
Q 1331 -91 842 396 
Q 353 884 353 1716 
Q 353 2575 817 3079 
Q 1281 3584 2069 3584 
Q 2775 3584 3186 3129 
Q 3597 2675 3597 1894 
z
M 3022 2063 
Q 3016 2534 2758 2815 
Q 2500 3097 2075 3097 
Q 1594 3097 1305 2825 
Q 1016 2553 972 2059 
L 3022 2063 
z
" transform="scale(0.015625)"/>
      </defs>
      <use xlink:href="#DejaVuSans-64"/>
      <use xlink:href="#DejaVuSans-61" x="63.476562"/>
      <use xlink:href="#DejaVuSans-74" x="124.755859"/>
      <use xlink:href="#DejaVuSans-65" x="163.964844"/>
     </g>
    </g>
   </g>
   <g id="matplotlib.axis_2">
    <g id="ytick_1">
     <g id="line2d_7">
      <defs>
       <path id="m31167704b9" d="M 0 0 
L -3.5 0 
" style="stroke: #000000; stroke-width: 0.8"/>
      </defs>
      <g>
       <use xlink:href="#m31167704b9" x="63.197818" y="302.135891" style="stroke: #000000; stroke-width: 0.8"/>
      </g>
     </g>
     <g id="text_8">
      <!-- −0.3 -->
      <g transform="translate(31.915006 305.93511) scale(0.1 -0.1)">
       <defs>
        <path id="DejaVuSans-2212" d="M 678 2272 
L 4684 2272 
L 4684 1741 
L 678 1741 
L 678 2272 
z
" transform="scale(0.015625)"/>
        <path id="DejaVuSans-2e" d="M 684 794 
L 1344 794 
L 1344 0 
L 684 0 
L 684 794 
z
" transform="scale(0.015625)"/>
        <path id="DejaVuSans-33" d="M 2597 2516 
Q 3050 2419 3304 2112 
Q 3559 1806 3559 1356 
Q 3559 666 3084 287 
Q 2609 -91 1734 -91 
Q 1441 -91 1130 -33 
Q 819 25 488 141 
L 488 750 
Q 750 597 1062 519 
Q 1375 441 1716 441 
Q 2309 441 2620 675 
Q 2931 909 2931 1356 
Q 2931 1769 2642 2001 
Q 2353 2234 1838 2234 
L 1294 2234 
L 1294 2753 
L 1863 2753 
Q 2328 2753 2575 2939 
Q 2822 3125 2822 3475 
Q 2822 3834 2567 4026 
Q 2313 4219 1838 4219 
Q 1578 4219 1281 4162 
Q 984 4106 628 3988 
L 628 4550 
Q 988 4650 1302 4700 
Q 1616 4750 1894 4750 
Q 2613 4750 3031 4423 
Q 3450 4097 3450 3541 
Q 3450 3153 3228 2886 
Q 3006 2619 2597 2516 
z
" transform="scale(0.015625)"/>
       </defs>
       <use xlink:href="#DejaVuSans-2212"/>
       <use xlink:href="#DejaVuSans-30" x="83.789062"/>
       <use xlink:href="#DejaVuSans-2e" x="147.412109"/>
       <use xlink:href="#DejaVuSans-33" x="179.199219"/>
      </g>
     </g>
    </g>
    <g id="ytick_2">
     <g id="line2d_8">
      <g>
       <use xlink:href="#m31167704b9" x="63.197818" y="264.898716" style="stroke: #000000; stroke-width: 0.8"/>
      </g>
     </g>
     <g id="text_9">
      <!-- −0.2 -->
      <g transform="translate(31.915006 268.697934) scale(0.1 -0.1)">
       <use xlink:href="#DejaVuSans-2212"/>
       <use xlink:href="#DejaVuSans-30" x="83.789062"/>
       <use xlink:href="#DejaVuSans-2e" x="147.412109"/>
       <use xlink:href="#DejaVuSans-32" x="179.199219"/>
      </g>
     </g>
    </g>
    <g id="ytick_3">
     <g id="line2d_9">
      <g>
       <use xlink:href="#m31167704b9" x="63.197818" y="227.661541" style="stroke: #000000; stroke-width: 0.8"/>
      </g>
     </g>
     <g id="text_10">
      <!-- −0.1 -->
      <g transform="translate(31.915006 231.460759) scale(0.1 -0.1)">
       <use xlink:href="#DejaVuSans-2212"/>
       <use xlink:href="#DejaVuSans-30" x="83.789062"/>
       <use xlink:href="#DejaVuSans-2e" x="147.412109"/>
       <use xlink:href="#DejaVuSans-31" x="179.199219"/>
      </g>
     </g>
    </g>
    <g id="ytick_4">
     <g id="line2d_10">
      <g>
       <use xlink:href="#m31167704b9" x="63.197818" y="190.424365" style="stroke: #000000; stroke-width: 0.8"/>
      </g>
     </g>
     <g id="text_11">
      <!-- 0.0 -->
      <g transform="translate(40.294693 194.223584) scale(0.1 -0.1)">
       <use xlink:href="#DejaVuSans-30"/>
       <use xlink:href="#DejaVuSans-2e" x="63.623047"/>
       <use xlink:href="#DejaVuSans-30" x="95.410156"/>
      </g>
     </g>
    </g>
    <g id="ytick_5">
     <g id="line2d_11">
      <g>
       <use xlink:href="#m31167704b9" x="63.197818" y="153.18719" style="stroke: #000000; stroke-width: 0.8"/>
      </g>
     </g>
     <g id="text_12">
      <!-- 0.1 -->
      <g transform="translate(40.294693 156.986409) scale(0.1 -0.1)">
       <use xlink:href="#DejaVuSans-30"/>
       <use xlink:href="#DejaVuSans-2e" x="63.623047"/>
       <use xlink:href="#DejaVuSans-31" x="95.410156"/>
      </g>
     </g>
    </g>
    <g id="ytick_6">
     <g id="line2d_12">
      <g>
       <use xlink:href="#m31167704b9" x="63.197818" y="115.950015" style="stroke: #000000; stroke-width: 0.8"/>
      </g>
     </g>
     <g id="text_13">
      <!-- 0.2 -->
      <g transform="translate(40.294693 119.749234) scale(0.1 -0.1)">
       <use xlink:href="#DejaVuSans-30"/>
       <use xlink:href="#DejaVuSans-2e" x="63.623047"/>
       <use xlink:href="#DejaVuSans-32" x="95.410156"/>
      </g>
     </g>
    </g>
    <g id="ytick_7">
     <g id="line2d_13">
      <g>
       <use xlink:href="#m31167704b9" x="63.197818" y="78.71284" style="stroke: #000000; stroke-width: 0.8"/>
      </g>
     </g>
     <g id="text_14">
      <!-- 0.3 -->
      <g transform="translate(40.294693 82.512059) scale(0.1 -0.1)">
       <use xlink:href="#DejaVuSans-30"/>
       <use xlink:href="#DejaVuSans-2e" x="63.623047"/>
       <use xlink:href="#DejaVuSans-33" x="95.410156"/>
      </g>
     </g>
    </g>
    <g id="ytick_8">
     <g id="line2d_14">
      <g>
       <use xlink:href="#m31167704b9" x="63.197818" y="41.475665" style="stroke: #000000; stroke-width: 0.8"/>
      </g>
     </g>
     <g id="text_15">
      <!-- 0.4 -->
      <g transform="translate(40.294693 45.274884) scale(0.1 -0.1)">
       <use xlink:href="#DejaVuSans-30"/>
       <use xlink:href="#DejaVuSans-2e" x="63.623047"/>
       <use xlink:href="#DejaVuSans-34" x="95.410156"/>
      </g>
     </g>
    </g>
    <g id="text_16">
     <!-- value -->
     <g transform="translate(25.835318 185.037813) rotate(-90) scale(0.1 -0.1)">
      <defs>
       <path id="DejaVuSans-76" d="M 191 3500 
L 800 3500 
L 1894 563 
L 2988 3500 
L 3597 3500 
L 2284 0 
L 1503 0 
L 191 3500 
z
" transform="scale(0.015625)"/>
       <path id="DejaVuSans-6c" d="M 603 4863 
L 1178 4863 
L 1178 0 
L 603 0 
L 603 4863 
z
" transform="scale(0.015625)"/>
       <path id="DejaVuSans-75" d="M 544 1381 
L 544 3500 
L 1119 3500 
L 1119 1403 
Q 1119 906 1312 657 
Q 1506 409 1894 409 
Q 2359 409 2629 706 
Q 2900 1003 2900 1516 
L 2900 3500 
L 3475 3500 
L 3475 0 
L 2900 0 
L 2900 538 
Q 2691 219 2414 64 
Q 2138 -91 1772 -91 
Q 1169 -91 856 284 
Q 544 659 544 1381 
z
M 1991 3584 
L 1991 3584 
z
" transform="scale(0.015625)"/>
      </defs>
      <use xlink:href="#DejaVuSans-76"/>
      <use xlink:href="#DejaVuSans-61" x="59.179688"/>
      <use xlink:href="#DejaVuSans-6c" x="120.458984"/>
      <use xlink:href="#DejaVuSans-75" x="148.242188"/>
      <use xlink:href="#DejaVuSans-65" x="211.621094"/>
     </g>
    </g>
   </g>
   <g id="line2d_15">
    <path d="M 77.99008 192.5652 
L 81.303139 181.351871 
L 84.652606 179.716413 
L 88.002072 193.077875 
L 91.278724 186.615392 
L 94.591782 190.347128 
L 97.941249 185.150458 
L 101.290715 185.884776 
L 104.567367 185.637798 
L 107.880426 185.644859 
L 111.229892 186.398744 
L 114.579358 185.564512 
L 117.85601 186.202185 
L 121.169069 186.523424 
L 124.518535 186.754285 
L 127.868001 186.049028 
L 131.18106 185.971152 
L 134.494119 185.893234 
L 137.843585 179.945572 
L 141.193051 187.404357 
L 144.469703 186.159948 
L 147.782762 186.321192 
L 151.132228 185.132339 
L 154.481694 185.504515 
L 157.758346 185.669962 
L 161.071405 184.42213 
L 164.420871 184.48734 
L 167.770337 184.368261 
L 171.046989 184.218038 
L 174.360048 184.553671 
L 177.709514 187.19957 
L 181.05898 182.091402 
L 184.372039 184.976749 
L 187.685098 185.448497 
L 191.034565 189.876529 
L 194.384031 185.360114 
L 197.660682 185.591095 
L 200.973741 184.66251 
L 204.323208 184.936829 
L 207.672674 184.372139 
L 210.949326 184.234852 
L 214.262384 184.813459 
L 217.611851 184.47379 
L 220.961317 185.013138 
L 224.237969 185.008757 
L 227.551028 184.78429 
L 230.900494 184.98427 
L 234.24996 184.821704 
L 237.563019 184.843012 
L 240.876078 185.166805 
L 244.225544 185.24232 
L 247.57501 185.242489 
L 250.851662 185.675266 
L 254.164721 185.530656 
L 257.514187 185.68863 
L 260.863653 186.014053 
L 264.140305 185.788532 
L 267.453364 186.092165 
L 270.80283 186.143058 
L 274.152296 185.858647 
L 277.428948 186.094612 
L 280.742007 185.829667 
L 284.091473 185.678167 
L 287.440939 185.921905 
L 290.753998 185.719513 
L 294.067057 185.826742 
L 297.416523 185.911906 
L 300.76599 185.766199 
L 304.042641 185.775123 
L 307.3557 185.748814 
L 310.705167 185.679311 
L 314.054633 185.658955 
L 317.331284 185.732696 
L 320.644343 185.675335 
L 323.99381 185.678673 
L 327.343276 185.782274 
L 330.619928 185.862998 
L 333.932986 186.023404 
L 337.282453 186.485155 
L 340.631919 192.753623 
L 343.944978 216.442267 
L 347.258037 177.881269 
L 350.607503 181.278433 
L 353.956969 187.177786 
L 357.233621 189.950888 
L 360.54668 189.733277 
L 363.896146 176.368687 
L 367.245612 187.523685 
L 370.522264 187.931781 
L 373.835323 188.307105 
" clip-path="url(#p950dfd4f2a)" style="fill: none; stroke: #1f77b4; stroke-width: 1.5; stroke-linecap: square"/>
   </g>
   <g id="line2d_16">
    <path d="M 77.99008 259.194381 
L 81.303139 234.15466 
L 84.652606 243.352461 
L 88.002072 209.40657 
L 91.278724 222.353333 
L 94.591782 134.519768 
L 97.941249 227.253555 
L 101.290715 195.422516 
L 104.567367 90.198306 
L 107.880426 186.141088 
L 111.229892 254.531487 
L 114.579358 188.955966 
L 117.85601 200.499912 
L 121.169069 89.758488 
L 124.518535 116.508061 
L 127.868001 129.927691 
L 131.18106 172.899835 
L 134.494119 194.384585 
L 137.843585 136.290205 
L 141.193051 116.934071 
L 144.469703 155.381766 
L 147.782762 175.488909 
L 151.132228 208.593322 
L 154.481694 160.077165 
L 157.758346 140.337459 
L 161.071405 190.860793 
L 164.420871 134.01086 
L 167.770337 115.503911 
L 171.046989 187.816065 
L 174.360048 126.307567 
L 177.709514 150.635686 
L 181.05898 138.893344 
L 184.372039 236.537277 
L 187.685098 192.671265 
L 191.034565 304.707273 
L 194.384031 238.1698 
L 197.660682 184.100448 
L 200.973741 38.052727 
L 204.323208 114.845472 
L 207.672674 175.781458 
L 210.949326 153.614923 
L 214.262384 184.60168 
L 217.611851 103.251429 
L 220.961317 171.485976 
L 224.237969 192.425327 
L 227.551028 168.367141 
L 230.900494 245.267933 
L 234.24996 139.22497 
L 237.563019 155.531619 
L 240.876078 206.024358 
L 244.225544 167.591305 
L 247.57501 180.739315 
L 250.851662 139.783565 
L 254.164721 202.500192 
L 257.514187 224.061171 
L 260.863653 192.020973 
L 264.140305 143.382165 
L 267.453364 189.592277 
L 270.80283 170.902706 
L 274.152296 183.046633 
L 277.428948 174.50762 
L 280.742007 228.759371 
L 284.091473 239.717962 
L 287.440939 166.70364 
L 290.753998 164.321092 
L 294.067057 180.552624 
L 297.416523 153.548517 
L 300.76599 203.232943 
L 304.042641 167.075635 
L 307.3557 170.271053 
L 310.705167 190.185391 
L 314.054633 163.651512 
L 317.331284 196.220141 
L 320.644343 219.889212 
L 323.99381 177.605565 
L 327.343276 175.60531 
L 330.619928 174.072278 
L 333.932986 194.632648 
L 337.282453 204.516698 
L 340.631919 181.60798 
L 343.944978 298.133969 
L 347.258037 153.041498 
L 350.607503 186.203421 
L 353.956969 105.402065 
L 357.233621 196.123907 
L 360.54668 190.764935 
L 363.896146 176.605271 
L 367.245612 164.331816 
L 370.522264 167.326001 
L 373.835323 205.386635 
" clip-path="url(#p950dfd4f2a)" style="fill: none; stroke: #ff7f0e; stroke-width: 1.5; stroke-linecap: square"/>
   </g>
   <g id="line2d_17"/>
   <g id="line2d_18"/>
   <g id="patch_3">
    <path d="M 63.197818 318.04 
L 63.197818 24.72 
" style="fill: none; stroke: #000000; stroke-width: 0.8; stroke-linejoin: miter; stroke-linecap: square"/>
   </g>
   <g id="patch_4">
    <path d="M 63.197818 318.04 
L 388.627585 318.04 
" style="fill: none; stroke: #000000; stroke-width: 0.8; stroke-linejoin: miter; stroke-linecap: square"/>
   </g>
   <g id="text_17">
    <!-- name = Indonesia -->
    <g transform="translate(180.184577 18.72) scale(0.1 -0.1)">
     <defs>
      <path id="DejaVuSans-6e" d="M 3513 2113 
L 3513 0 
L 2938 0 
L 2938 2094 
Q 2938 2591 2744 2837 
Q 2550 3084 2163 3084 
Q 1697 3084 1428 2787 
Q 1159 2491 1159 1978 
L 1159 0 
L 581 0 
L 581 3500 
L 1159 3500 
L 1159 2956 
Q 1366 3272 1645 3428 
Q 1925 3584 2291 3584 
Q 2894 3584 3203 3211 
Q 3513 2838 3513 2113 
z
" transform="scale(0.015625)"/>
      <path id="DejaVuSans-6d" d="M 3328 2828 
Q 3544 3216 3844 3400 
Q 4144 3584 4550 3584 
Q 5097 3584 5394 3201 
Q 5691 2819 5691 2113 
L 5691 0 
L 5113 0 
L 5113 2094 
Q 5113 2597 4934 2840 
Q 4756 3084 4391 3084 
Q 3944 3084 3684 2787 
Q 3425 2491 3425 1978 
L 3425 0 
L 2847 0 
L 2847 2094 
Q 2847 2600 2669 2842 
Q 2491 3084 2119 3084 
Q 1678 3084 1418 2786 
Q 1159 2488 1159 1978 
L 1159 0 
L 581 0 
L 581 3500 
L 1159 3500 
L 1159 2956 
Q 1356 3278 1631 3431 
Q 1906 3584 2284 3584 
Q 2666 3584 2933 3390 
Q 3200 3197 3328 2828 
z
" transform="scale(0.015625)"/>
      <path id="DejaVuSans-20" transform="scale(0.015625)"/>
      <path id="DejaVuSans-3d" d="M 678 2906 
L 4684 2906 
L 4684 2381 
L 678 2381 
L 678 2906 
z
M 678 1631 
L 4684 1631 
L 4684 1100 
L 678 1100 
L 678 1631 
z
" transform="scale(0.015625)"/>
      <path id="DejaVuSans-49" d="M 628 4666 
L 1259 4666 
L 1259 0 
L 628 0 
L 628 4666 
z
" transform="scale(0.015625)"/>
      <path id="DejaVuSans-6f" d="M 1959 3097 
Q 1497 3097 1228 2736 
Q 959 2375 959 1747 
Q 959 1119 1226 758 
Q 1494 397 1959 397 
Q 2419 397 2687 759 
Q 2956 1122 2956 1747 
Q 2956 2369 2687 2733 
Q 2419 3097 1959 3097 
z
M 1959 3584 
Q 2709 3584 3137 3096 
Q 3566 2609 3566 1747 
Q 3566 888 3137 398 
Q 2709 -91 1959 -91 
Q 1206 -91 779 398 
Q 353 888 353 1747 
Q 353 2609 779 3096 
Q 1206 3584 1959 3584 
z
" transform="scale(0.015625)"/>
      <path id="DejaVuSans-73" d="M 2834 3397 
L 2834 2853 
Q 2591 2978 2328 3040 
Q 2066 3103 1784 3103 
Q 1356 3103 1142 2972 
Q 928 2841 928 2578 
Q 928 2378 1081 2264 
Q 1234 2150 1697 2047 
L 1894 2003 
Q 2506 1872 2764 1633 
Q 3022 1394 3022 966 
Q 3022 478 2636 193 
Q 2250 -91 1575 -91 
Q 1294 -91 989 -36 
Q 684 19 347 128 
L 347 722 
Q 666 556 975 473 
Q 1284 391 1588 391 
Q 1994 391 2212 530 
Q 2431 669 2431 922 
Q 2431 1156 2273 1281 
Q 2116 1406 1581 1522 
L 1381 1569 
Q 847 1681 609 1914 
Q 372 2147 372 2553 
Q 372 3047 722 3315 
Q 1072 3584 1716 3584 
Q 2034 3584 2315 3537 
Q 2597 3491 2834 3397 
z
" transform="scale(0.015625)"/>
      <path id="DejaVuSans-69" d="M 603 3500 
L 1178 3500 
L 1178 0 
L 603 0 
L 603 3500 
z
M 603 4863 
L 1178 4863 
L 1178 4134 
L 603 4134 
L 603 4863 
z
" transform="scale(0.015625)"/>
     </defs>
     <use xlink:href="#DejaVuSans-6e"/>
     <use xlink:href="#DejaVuSans-61" x="63.378906"/>
     <use xlink:href="#DejaVuSans-6d" x="124.658203"/>
     <use xlink:href="#DejaVuSans-65" x="222.070312"/>
     <use xlink:href="#DejaVuSans-20" x="283.59375"/>
     <use xlink:href="#DejaVuSans-3d" x="315.380859"/>
     <use xlink:href="#DejaVuSans-20" x="399.169922"/>
     <use xlink:href="#DejaVuSans-49" x="430.957031"/>
     <use xlink:href="#DejaVuSans-6e" x="460.449219"/>
     <use xlink:href="#DejaVuSans-64" x="523.828125"/>
     <use xlink:href="#DejaVuSans-6f" x="587.304688"/>
     <use xlink:href="#DejaVuSans-6e" x="648.486328"/>
     <use xlink:href="#DejaVuSans-65" x="711.865234"/>
     <use xlink:href="#DejaVuSans-73" x="773.388672"/>
     <use xlink:href="#DejaVuSans-69" x="825.488281"/>
     <use xlink:href="#DejaVuSans-61" x="853.271484"/>
    </g>
   </g>
  </g>
  <g id="axes_2">
   <g id="patch_5">
    <path d="M 402.809476 318.04 
L 728.239242 318.04 
L 728.239242 24.72 
L 402.809476 24.72 
z
" style="fill: #ffffff"/>
   </g>
   <g id="PolyCollection_3"/>
   <g id="PolyCollection_4"/>
   <g id="matplotlib.axis_3">
    <g id="xtick_7">
     <g id="line2d_19">
      <g>
       <use xlink:href="#m167b72f539" x="414.288679" y="318.04" style="stroke: #000000; stroke-width: 0.8"/>
      </g>
     </g>
     <g id="text_18">
      <!-- 2000 -->
      <g transform="translate(401.563679 332.638438) scale(0.1 -0.1)">
       <use xlink:href="#DejaVuSans-32"/>
       <use xlink:href="#DejaVuSans-30" x="63.623047"/>
       <use xlink:href="#DejaVuSans-30" x="127.246094"/>
       <use xlink:href="#DejaVuSans-30" x="190.869141"/>
      </g>
     </g>
    </g>
    <g id="xtick_8">
     <g id="line2d_20">
      <g>
       <use xlink:href="#m167b72f539" x="467.479658" y="318.04" style="stroke: #000000; stroke-width: 0.8"/>
      </g>
     </g>
     <g id="text_19">
      <!-- 2004 -->
      <g transform="translate(454.754658 332.638438) scale(0.1 -0.1)">
       <use xlink:href="#DejaVuSans-32"/>
       <use xlink:href="#DejaVuSans-30" x="63.623047"/>
       <use xlink:href="#DejaVuSans-30" x="127.246094"/>
       <use xlink:href="#DejaVuSans-34" x="190.869141"/>
      </g>
     </g>
    </g>
    <g id="xtick_9">
     <g id="line2d_21">
      <g>
       <use xlink:href="#m167b72f539" x="520.670638" y="318.04" style="stroke: #000000; stroke-width: 0.8"/>
      </g>
     </g>
     <g id="text_20">
      <!-- 2008 -->
      <g transform="translate(507.945638 332.638438) scale(0.1 -0.1)">
       <use xlink:href="#DejaVuSans-32"/>
       <use xlink:href="#DejaVuSans-30" x="63.623047"/>
       <use xlink:href="#DejaVuSans-30" x="127.246094"/>
       <use xlink:href="#DejaVuSans-38" x="190.869141"/>
      </g>
     </g>
    </g>
    <g id="xtick_10">
     <g id="line2d_22">
      <g>
       <use xlink:href="#m167b72f539" x="573.861617" y="318.04" style="stroke: #000000; stroke-width: 0.8"/>
      </g>
     </g>
     <g id="text_21">
      <!-- 2012 -->
      <g transform="translate(561.136617 332.638438) scale(0.1 -0.1)">
       <use xlink:href="#DejaVuSans-32"/>
       <use xlink:href="#DejaVuSans-30" x="63.623047"/>
       <use xlink:href="#DejaVuSans-31" x="127.246094"/>
       <use xlink:href="#DejaVuSans-32" x="190.869141"/>
      </g>
     </g>
    </g>
    <g id="xtick_11">
     <g id="line2d_23">
      <g>
       <use xlink:href="#m167b72f539" x="627.052597" y="318.04" style="stroke: #000000; stroke-width: 0.8"/>
      </g>
     </g>
     <g id="text_22">
      <!-- 2016 -->
      <g transform="translate(614.327597 332.638438) scale(0.1 -0.1)">
       <use xlink:href="#DejaVuSans-32"/>
       <use xlink:href="#DejaVuSans-30" x="63.623047"/>
       <use xlink:href="#DejaVuSans-31" x="127.246094"/>
       <use xlink:href="#DejaVuSans-36" x="190.869141"/>
      </g>
     </g>
    </g>
    <g id="xtick_12">
     <g id="line2d_24">
      <g>
       <use xlink:href="#m167b72f539" x="680.243576" y="318.04" style="stroke: #000000; stroke-width: 0.8"/>
      </g>
     </g>
     <g id="text_23">
      <!-- 2020 -->
      <g transform="translate(667.518576 332.638438) scale(0.1 -0.1)">
       <use xlink:href="#DejaVuSans-32"/>
       <use xlink:href="#DejaVuSans-30" x="63.623047"/>
       <use xlink:href="#DejaVuSans-32" x="127.246094"/>
       <use xlink:href="#DejaVuSans-30" x="190.869141"/>
      </g>
     </g>
    </g>
    <g id="text_24">
     <!-- date -->
     <g transform="translate(554.249359 346.316563) scale(0.1 -0.1)">
      <use xlink:href="#DejaVuSans-64"/>
      <use xlink:href="#DejaVuSans-61" x="63.476562"/>
      <use xlink:href="#DejaVuSans-74" x="124.755859"/>
      <use xlink:href="#DejaVuSans-65" x="163.964844"/>
     </g>
    </g>
   </g>
   <g id="matplotlib.axis_4">
    <g id="ytick_9">
     <g id="line2d_25">
      <g>
       <use xlink:href="#m31167704b9" x="402.809476" y="302.135891" style="stroke: #000000; stroke-width: 0.8"/>
      </g>
     </g>
    </g>
    <g id="ytick_10">
     <g id="line2d_26">
      <g>
       <use xlink:href="#m31167704b9" x="402.809476" y="264.898716" style="stroke: #000000; stroke-width: 0.8"/>
      </g>
     </g>
    </g>
    <g id="ytick_11">
     <g id="line2d_27">
      <g>
       <use xlink:href="#m31167704b9" x="402.809476" y="227.661541" style="stroke: #000000; stroke-width: 0.8"/>
      </g>
     </g>
    </g>
    <g id="ytick_12">
     <g id="line2d_28">
      <g>
       <use xlink:href="#m31167704b9" x="402.809476" y="190.424365" style="stroke: #000000; stroke-width: 0.8"/>
      </g>
     </g>
    </g>
    <g id="ytick_13">
     <g id="line2d_29">
      <g>
       <use xlink:href="#m31167704b9" x="402.809476" y="153.18719" style="stroke: #000000; stroke-width: 0.8"/>
      </g>
     </g>
    </g>
    <g id="ytick_14">
     <g id="line2d_30">
      <g>
       <use xlink:href="#m31167704b9" x="402.809476" y="115.950015" style="stroke: #000000; stroke-width: 0.8"/>
      </g>
     </g>
    </g>
    <g id="ytick_15">
     <g id="line2d_31">
      <g>
       <use xlink:href="#m31167704b9" x="402.809476" y="78.71284" style="stroke: #000000; stroke-width: 0.8"/>
      </g>
     </g>
    </g>
    <g id="ytick_16">
     <g id="line2d_32">
      <g>
       <use xlink:href="#m31167704b9" x="402.809476" y="41.475665" style="stroke: #000000; stroke-width: 0.8"/>
      </g>
     </g>
    </g>
   </g>
   <g id="line2d_33">
    <path d="M 417.601738 184.813707 
L 420.914797 186.624285 
L 424.264263 193.636039 
L 427.613729 190.324062 
L 430.890381 192.427675 
L 434.20344 189.606664 
L 437.552906 192.78937 
L 440.902372 192.960734 
L 444.179024 186.982496 
L 447.492083 187.527289 
L 450.841549 189.545791 
L 454.191015 189.541043 
L 457.467667 189.571788 
L 460.780726 190.564744 
L 464.130192 186.32731 
L 467.479658 185.180205 
L 470.792717 184.681633 
L 474.105776 191.217569 
L 477.455243 185.486133 
L 480.804709 189.831208 
L 484.08136 189.3305 
L 487.394419 187.299046 
L 490.743886 184.203353 
L 494.093352 183.881583 
L 497.370004 186.806493 
L 500.683062 189.381597 
L 504.032529 189.498307 
L 507.381995 187.816478 
L 510.658647 187.549151 
L 513.971706 188.080658 
L 517.321172 188.961688 
L 520.670638 191.179515 
L 523.983697 187.547214 
L 527.296756 189.246406 
L 530.646222 196.502836 
L 533.995688 209.505104 
L 537.27234 195.921466 
L 540.585399 178.149108 
L 543.934865 184.247996 
L 547.284331 186.526281 
L 550.560983 186.303413 
L 553.874042 186.92763 
L 557.223508 187.545456 
L 560.572974 187.595606 
L 563.849626 188.428037 
L 567.162685 183.189271 
L 570.512151 187.984935 
L 573.861617 187.99157 
L 577.174676 187.188366 
L 580.487735 188.31826 
L 583.837202 187.242302 
L 587.186668 189.513643 
L 590.463319 192.472804 
L 593.776378 186.949966 
L 597.125845 188.344809 
L 600.475311 187.853501 
L 603.751962 185.731175 
L 607.065021 189.063027 
L 610.414488 186.535733 
L 613.763954 188.390299 
L 617.040606 186.105897 
L 620.353664 185.483977 
L 623.703131 191.694006 
L 627.052597 188.273158 
L 630.365656 188.86537 
L 633.678715 186.450597 
L 637.028181 186.580614 
L 640.377647 188.636601 
L 643.654299 189.296387 
L 646.967358 191.298345 
L 650.316824 185.665161 
L 653.66629 186.224119 
L 656.942942 190.573949 
L 660.256001 188.692521 
L 663.605467 191.472207 
L 666.954933 190.23774 
L 670.231585 192.130453 
L 673.544644 188.277109 
L 676.89411 193.265009 
L 680.243576 193.886106 
L 683.556635 257.299367 
L 686.869694 139.582311 
L 690.21916 176.777163 
L 693.568627 188.615381 
L 696.845278 186.898625 
L 700.158337 192.394042 
L 703.507804 189.267898 
L 706.85727 186.172212 
L 710.133921 186.982245 
L 713.44698 183.856055 
" clip-path="url(#pfdcb5571d8)" style="fill: none; stroke: #1f77b4; stroke-width: 1.5; stroke-linecap: square"/>
   </g>
   <g id="line2d_34">
    <path d="M 417.601738 174.582404 
L 420.914797 190.699385 
L 424.264263 247.427271 
L 427.613729 231.446585 
L 430.890381 181.21947 
L 434.20344 118.289502 
L 437.552906 267.757769 
L 440.902372 119.583514 
L 444.179024 134.549266 
L 447.492083 241.383297 
L 450.841549 215.962304 
L 454.191015 171.654563 
L 457.467667 210.141761 
L 460.780726 112.878687 
L 464.130192 147.892619 
L 467.479658 149.091887 
L 470.792717 114.681428 
L 474.105776 202.737843 
L 477.455243 160.764435 
L 480.804709 125.062167 
L 484.08136 199.249263 
L 487.394419 167.14227 
L 490.743886 120.358572 
L 494.093352 146.933187 
L 497.370004 154.933337 
L 500.683062 182.333524 
L 504.032529 161.483379 
L 507.381995 103.540539 
L 510.658647 155.412873 
L 513.971706 161.713919 
L 517.321172 197.120389 
L 520.670638 216.450116 
L 523.983697 150.350219 
L 527.296756 220.490048 
L 530.646222 242.719954 
L 533.995688 218.093699 
L 537.27234 244.405497 
L 540.585399 103.446072 
L 543.934865 128.712928 
L 547.284331 136.105195 
L 550.560983 180.303477 
L 553.874042 217.557511 
L 557.223508 159.265811 
L 560.572974 137.573372 
L 563.849626 198.437165 
L 567.162685 200.029139 
L 570.512151 227.527651 
L 573.861617 142.65599 
L 577.174676 165.281739 
L 580.487735 185.514851 
L 583.837202 184.071413 
L 587.186668 161.633828 
L 590.463319 193.548063 
L 593.776378 213.78182 
L 597.125845 188.991294 
L 600.475311 182.738435 
L 603.751962 205.591967 
L 607.065021 168.315518 
L 610.414488 177.464558 
L 613.763954 209.305197 
L 617.040606 171.967588 
L 620.353664 184.311994 
L 623.703131 208.929864 
L 627.052597 195.500631 
L 630.365656 155.505112 
L 633.678715 189.208958 
L 637.028181 179.234986 
L 640.377647 205.340755 
L 643.654299 164.966982 
L 646.967358 180.584092 
L 650.316824 187.511331 
L 653.66629 193.869359 
L 656.942942 221.736762 
L 660.256001 183.705428 
L 663.605467 164.979292 
L 666.954933 246.983219 
L 670.231585 178.083504 
L 673.544644 192.418045 
L 676.89411 194.719828 
L 680.243576 177.415033 
L 683.556635 280.467452 
L 686.869694 147.012257 
L 690.21916 200.259911 
L 693.568627 108.30792 
L 696.845278 160.912748 
L 700.158337 173.976552 
L 703.507804 185.374639 
L 706.85727 176.706856 
L 710.133921 164.621006 
L 713.44698 248.746575 
" clip-path="url(#pfdcb5571d8)" style="fill: none; stroke: #ff7f0e; stroke-width: 1.5; stroke-linecap: square"/>
   </g>
   <g id="patch_6">
    <path d="M 402.809476 318.04 
L 402.809476 24.72 
" style="fill: none; stroke: #000000; stroke-width: 0.8; stroke-linejoin: miter; stroke-linecap: square"/>
   </g>
   <g id="patch_7">
    <path d="M 402.809476 318.04 
L 728.239242 318.04 
" style="fill: none; stroke: #000000; stroke-width: 0.8; stroke-linejoin: miter; stroke-linecap: square"/>
   </g>
   <g id="text_25">
    <!-- name = Mexico -->
    <g transform="translate(526.516547 18.72) scale(0.1 -0.1)">
     <defs>
      <path id="DejaVuSans-4d" d="M 628 4666 
L 1569 4666 
L 2759 1491 
L 3956 4666 
L 4897 4666 
L 4897 0 
L 4281 0 
L 4281 4097 
L 3078 897 
L 2444 897 
L 1241 4097 
L 1241 0 
L 628 0 
L 628 4666 
z
" transform="scale(0.015625)"/>
      <path id="DejaVuSans-78" d="M 3513 3500 
L 2247 1797 
L 3578 0 
L 2900 0 
L 1881 1375 
L 863 0 
L 184 0 
L 1544 1831 
L 300 3500 
L 978 3500 
L 1906 2253 
L 2834 3500 
L 3513 3500 
z
" transform="scale(0.015625)"/>
      <path id="DejaVuSans-63" d="M 3122 3366 
L 3122 2828 
Q 2878 2963 2633 3030 
Q 2388 3097 2138 3097 
Q 1578 3097 1268 2742 
Q 959 2388 959 1747 
Q 959 1106 1268 751 
Q 1578 397 2138 397 
Q 2388 397 2633 464 
Q 2878 531 3122 666 
L 3122 134 
Q 2881 22 2623 -34 
Q 2366 -91 2075 -91 
Q 1284 -91 818 406 
Q 353 903 353 1747 
Q 353 2603 823 3093 
Q 1294 3584 2113 3584 
Q 2378 3584 2631 3529 
Q 2884 3475 3122 3366 
z
" transform="scale(0.015625)"/>
     </defs>
     <use xlink:href="#DejaVuSans-6e"/>
     <use xlink:href="#DejaVuSans-61" x="63.378906"/>
     <use xlink:href="#DejaVuSans-6d" x="124.658203"/>
     <use xlink:href="#DejaVuSans-65" x="222.070312"/>
     <use xlink:href="#DejaVuSans-20" x="283.59375"/>
     <use xlink:href="#DejaVuSans-3d" x="315.380859"/>
     <use xlink:href="#DejaVuSans-20" x="399.169922"/>
     <use xlink:href="#DejaVuSans-4d" x="430.957031"/>
     <use xlink:href="#DejaVuSans-65" x="517.236328"/>
     <use xlink:href="#DejaVuSans-78" x="577.009766"/>
     <use xlink:href="#DejaVuSans-69" x="636.189453"/>
     <use xlink:href="#DejaVuSans-63" x="663.972656"/>
     <use xlink:href="#DejaVuSans-6f" x="718.953125"/>
    </g>
   </g>
  </g>
  <g id="axes_3">
   <g id="patch_8">
    <path d="M 742.421133 318.04 
L 1067.8509 318.04 
L 1067.8509 24.72 
L 742.421133 24.72 
z
" style="fill: #ffffff"/>
   </g>
   <g id="PolyCollection_5"/>
   <g id="PolyCollection_6"/>
   <g id="matplotlib.axis_5">
    <g id="xtick_13">
     <g id="line2d_35">
      <g>
       <use xlink:href="#m167b72f539" x="753.900337" y="318.04" style="stroke: #000000; stroke-width: 0.8"/>
      </g>
     </g>
     <g id="text_26">
      <!-- 2000 -->
      <g transform="translate(741.175337 332.638438) scale(0.1 -0.1)">
       <use xlink:href="#DejaVuSans-32"/>
       <use xlink:href="#DejaVuSans-30" x="63.623047"/>
       <use xlink:href="#DejaVuSans-30" x="127.246094"/>
       <use xlink:href="#DejaVuSans-30" x="190.869141"/>
      </g>
     </g>
    </g>
    <g id="xtick_14">
     <g id="line2d_36">
      <g>
       <use xlink:href="#m167b72f539" x="807.091316" y="318.04" style="stroke: #000000; stroke-width: 0.8"/>
      </g>
     </g>
     <g id="text_27">
      <!-- 2004 -->
      <g transform="translate(794.366316 332.638438) scale(0.1 -0.1)">
       <use xlink:href="#DejaVuSans-32"/>
       <use xlink:href="#DejaVuSans-30" x="63.623047"/>
       <use xlink:href="#DejaVuSans-30" x="127.246094"/>
       <use xlink:href="#DejaVuSans-34" x="190.869141"/>
      </g>
     </g>
    </g>
    <g id="xtick_15">
     <g id="line2d_37">
      <g>
       <use xlink:href="#m167b72f539" x="860.282295" y="318.04" style="stroke: #000000; stroke-width: 0.8"/>
      </g>
     </g>
     <g id="text_28">
      <!-- 2008 -->
      <g transform="translate(847.557295 332.638438) scale(0.1 -0.1)">
       <use xlink:href="#DejaVuSans-32"/>
       <use xlink:href="#DejaVuSans-30" x="63.623047"/>
       <use xlink:href="#DejaVuSans-30" x="127.246094"/>
       <use xlink:href="#DejaVuSans-38" x="190.869141"/>
      </g>
     </g>
    </g>
    <g id="xtick_16">
     <g id="line2d_38">
      <g>
       <use xlink:href="#m167b72f539" x="913.473275" y="318.04" style="stroke: #000000; stroke-width: 0.8"/>
      </g>
     </g>
     <g id="text_29">
      <!-- 2012 -->
      <g transform="translate(900.748275 332.638438) scale(0.1 -0.1)">
       <use xlink:href="#DejaVuSans-32"/>
       <use xlink:href="#DejaVuSans-30" x="63.623047"/>
       <use xlink:href="#DejaVuSans-31" x="127.246094"/>
       <use xlink:href="#DejaVuSans-32" x="190.869141"/>
      </g>
     </g>
    </g>
    <g id="xtick_17">
     <g id="line2d_39">
      <g>
       <use xlink:href="#m167b72f539" x="966.664254" y="318.04" style="stroke: #000000; stroke-width: 0.8"/>
      </g>
     </g>
     <g id="text_30">
      <!-- 2016 -->
      <g transform="translate(953.939254 332.638438) scale(0.1 -0.1)">
       <use xlink:href="#DejaVuSans-32"/>
       <use xlink:href="#DejaVuSans-30" x="63.623047"/>
       <use xlink:href="#DejaVuSans-31" x="127.246094"/>
       <use xlink:href="#DejaVuSans-36" x="190.869141"/>
      </g>
     </g>
    </g>
    <g id="xtick_18">
     <g id="line2d_40">
      <g>
       <use xlink:href="#m167b72f539" x="1019.855234" y="318.04" style="stroke: #000000; stroke-width: 0.8"/>
      </g>
     </g>
     <g id="text_31">
      <!-- 2020 -->
      <g transform="translate(1007.130234 332.638438) scale(0.1 -0.1)">
       <use xlink:href="#DejaVuSans-32"/>
       <use xlink:href="#DejaVuSans-30" x="63.623047"/>
       <use xlink:href="#DejaVuSans-32" x="127.246094"/>
       <use xlink:href="#DejaVuSans-30" x="190.869141"/>
      </g>
     </g>
    </g>
   </g>
   <g id="matplotlib.axis_6">
    <g id="ytick_17">
     <g id="line2d_41">
      <g>
       <use xlink:href="#m31167704b9" x="742.421133" y="302.135891" style="stroke: #000000; stroke-width: 0.8"/>
      </g>
     </g>
    </g>
    <g id="ytick_18">
     <g id="line2d_42">
      <g>
       <use xlink:href="#m31167704b9" x="742.421133" y="264.898716" style="stroke: #000000; stroke-width: 0.8"/>
      </g>
     </g>
    </g>
    <g id="ytick_19">
     <g id="line2d_43">
      <g>
       <use xlink:href="#m31167704b9" x="742.421133" y="227.661541" style="stroke: #000000; stroke-width: 0.8"/>
      </g>
     </g>
    </g>
    <g id="ytick_20">
     <g id="line2d_44">
      <g>
       <use xlink:href="#m31167704b9" x="742.421133" y="190.424365" style="stroke: #000000; stroke-width: 0.8"/>
      </g>
     </g>
    </g>
    <g id="ytick_21">
     <g id="line2d_45">
      <g>
       <use xlink:href="#m31167704b9" x="742.421133" y="153.18719" style="stroke: #000000; stroke-width: 0.8"/>
      </g>
     </g>
    </g>
    <g id="ytick_22">
     <g id="line2d_46">
      <g>
       <use xlink:href="#m31167704b9" x="742.421133" y="115.950015" style="stroke: #000000; stroke-width: 0.8"/>
      </g>
     </g>
    </g>
    <g id="ytick_23">
     <g id="line2d_47">
      <g>
       <use xlink:href="#m31167704b9" x="742.421133" y="78.71284" style="stroke: #000000; stroke-width: 0.8"/>
      </g>
     </g>
    </g>
    <g id="ytick_24">
     <g id="line2d_48">
      <g>
       <use xlink:href="#m31167704b9" x="742.421133" y="41.475665" style="stroke: #000000; stroke-width: 0.8"/>
      </g>
     </g>
    </g>
   </g>
   <g id="line2d_49">
    <path d="M 757.213395 183.645023 
L 760.526454 190.05284 
L 763.875921 188.21113 
L 767.225387 191.631667 
L 770.502039 188.110493 
L 773.815097 191.915152 
L 777.164564 189.39172 
L 780.51403 187.340287 
L 783.790682 188.132408 
L 787.103741 188.921733 
L 790.453207 189.93784 
L 793.802673 188.50024 
L 797.079325 187.097673 
L 800.392384 184.217315 
L 803.74185 186.127025 
L 807.091316 188.290992 
L 810.404375 187.524557 
L 813.717434 186.919432 
L 817.0669 186.618619 
L 820.416366 186.287758 
L 823.693018 188.612383 
L 827.006077 187.498931 
L 830.355543 188.309566 
L 833.705009 185.402314 
L 836.981661 189.509876 
L 840.29472 189.864109 
L 843.644186 187.282622 
L 846.993652 189.331091 
L 850.270304 188.047011 
L 853.583363 188.181546 
L 856.932829 188.154228 
L 860.282295 191.941518 
L 863.595354 188.293295 
L 866.908413 192.386371 
L 870.25788 198.553598 
L 873.607346 194.765187 
L 876.883997 191.054565 
L 880.197056 189.076636 
L 883.546523 186.447577 
L 886.895989 188.562308 
L 890.172641 186.820912 
L 893.485699 187.545395 
L 896.835166 188.489535 
L 900.184632 191.321469 
L 903.461284 187.899496 
L 906.774343 190.568728 
L 910.123809 186.247553 
L 913.473275 187.378652 
L 916.786334 188.726872 
L 920.099393 189.773146 
L 923.448859 190.01536 
L 926.798325 187.192962 
L 930.074977 189.905339 
L 933.388036 187.476467 
L 936.737502 187.77617 
L 940.086968 191.728071 
L 943.36362 185.642632 
L 946.676679 186.086382 
L 950.026145 188.752437 
L 953.375611 187.395815 
L 956.652263 188.264604 
L 959.965322 189.220221 
L 963.314788 189.879826 
L 966.664254 188.230426 
L 969.977313 189.298355 
L 973.290372 188.185982 
L 976.639838 188.574096 
L 979.989305 188.824421 
L 983.265956 188.548383 
L 986.579015 187.343031 
L 989.928482 186.679571 
L 993.277948 187.845114 
L 996.554599 187.827657 
L 999.867658 187.735712 
L 1003.217125 189.747452 
L 1006.566591 188.403465 
L 1009.843243 187.91827 
L 1013.156301 187.110386 
L 1016.505768 188.77458 
L 1019.855234 194.800308 
L 1023.168293 222.01764 
L 1026.481352 161.176489 
L 1029.830818 186.837631 
L 1033.180284 184.679444 
L 1036.456936 184.06792 
L 1039.769995 187.979021 
L 1043.119461 184.110076 
L 1046.468927 191.952353 
L 1049.745579 190.962938 
L 1053.058638 188.057652 
" clip-path="url(#pd36293143f)" style="fill: none; stroke: #1f77b4; stroke-width: 1.5; stroke-linecap: square"/>
   </g>
   <g id="line2d_50">
    <path d="M 757.213395 177.438104 
L 760.526454 199.432166 
L 763.875921 198.864915 
L 767.225387 230.082338 
L 770.502039 230.294297 
L 773.815097 160.900977 
L 777.164564 250.092587 
L 780.51403 148.789582 
L 783.790682 193.046226 
L 787.103741 248.199248 
L 790.453207 236.839668 
L 793.802673 163.582622 
L 797.079325 211.131503 
L 800.392384 136.70788 
L 803.74185 176.815631 
L 807.091316 157.415508 
L 810.404375 182.466161 
L 813.717434 191.486749 
L 817.0669 189.579951 
L 820.416366 167.196808 
L 823.693018 199.457315 
L 827.006077 183.592355 
L 830.355543 180.36717 
L 833.705009 177.644641 
L 836.981661 181.910409 
L 840.29472 195.479985 
L 843.644186 175.552065 
L 846.993652 166.571441 
L 850.270304 188.334585 
L 853.583363 165.623107 
L 856.932829 183.657895 
L 860.282295 214.465432 
L 863.595354 210.232244 
L 866.908413 213.598069 
L 870.25788 226.316553 
L 873.607346 263.951978 
L 876.883997 238.667237 
L 880.197056 138.88971 
L 883.546523 147.465702 
L 886.895989 153.13114 
L 890.172641 175.598388 
L 893.485699 238.06683 
L 896.835166 147.339763 
L 900.184632 149.611739 
L 903.461284 172.699755 
L 906.774343 188.395394 
L 910.123809 257.256559 
L 913.473275 130.183198 
L 916.786334 149.025111 
L 920.099393 204.471235 
L 923.448859 168.886688 
L 926.798325 185.802218 
L 930.074977 165.025314 
L 933.388036 177.840925 
L 936.737502 171.969017 
L 940.086968 160.33146 
L 943.36362 179.541715 
L 946.676679 173.084739 
L 950.026145 195.549527 
L 953.375611 168.987023 
L 956.652263 190.154795 
L 959.965322 187.218959 
L 963.314788 217.956734 
L 966.664254 173.228609 
L 969.977313 179.301281 
L 973.290372 185.004385 
L 976.639838 180.109971 
L 979.989305 173.775129 
L 983.265956 173.765329 
L 986.579015 179.347185 
L 989.928482 175.0773 
L 993.277948 165.881986 
L 996.554599 206.16152 
L 999.867658 169.53624 
L 1003.217125 163.400967 
L 1006.566591 243.207987 
L 1009.843243 137.438441 
L 1013.156301 177.808444 
L 1016.505768 193.449245 
L 1019.855234 150.201492 
L 1023.168293 280.418357 
L 1026.481352 93.15099 
L 1029.830818 158.761792 
L 1033.180284 155.195116 
L 1036.456936 158.303361 
L 1039.769995 162.628063 
L 1043.119461 187.226398 
L 1046.468927 152.861057 
L 1049.745579 209.886995 
L 1053.058638 249.446189 
" clip-path="url(#pd36293143f)" style="fill: none; stroke: #ff7f0e; stroke-width: 1.5; stroke-linecap: square"/>
   </g>
   <g id="patch_9">
    <path d="M 742.421133 318.04 
L 742.421133 24.72 
" style="fill: none; stroke: #000000; stroke-width: 0.8; stroke-linejoin: miter; stroke-linecap: square"/>
   </g>
   <g id="patch_10">
    <path d="M 742.421133 318.04 
L 1067.8509 318.04 
" style="fill: none; stroke: #000000; stroke-width: 0.8; stroke-linejoin: miter; stroke-linecap: square"/>
   </g>
   <g id="text_32">
    <!-- name = United States -->
    <g transform="translate(849.731329 18.72) scale(0.1 -0.1)">
     <defs>
      <path id="DejaVuSans-55" d="M 556 4666 
L 1191 4666 
L 1191 1831 
Q 1191 1081 1462 751 
Q 1734 422 2344 422 
Q 2950 422 3222 751 
Q 3494 1081 3494 1831 
L 3494 4666 
L 4128 4666 
L 4128 1753 
Q 4128 841 3676 375 
Q 3225 -91 2344 -91 
Q 1459 -91 1007 375 
Q 556 841 556 1753 
L 556 4666 
z
" transform="scale(0.015625)"/>
      <path id="DejaVuSans-53" d="M 3425 4513 
L 3425 3897 
Q 3066 4069 2747 4153 
Q 2428 4238 2131 4238 
Q 1616 4238 1336 4038 
Q 1056 3838 1056 3469 
Q 1056 3159 1242 3001 
Q 1428 2844 1947 2747 
L 2328 2669 
Q 3034 2534 3370 2195 
Q 3706 1856 3706 1288 
Q 3706 609 3251 259 
Q 2797 -91 1919 -91 
Q 1588 -91 1214 -16 
Q 841 59 441 206 
L 441 856 
Q 825 641 1194 531 
Q 1563 422 1919 422 
Q 2459 422 2753 634 
Q 3047 847 3047 1241 
Q 3047 1584 2836 1778 
Q 2625 1972 2144 2069 
L 1759 2144 
Q 1053 2284 737 2584 
Q 422 2884 422 3419 
Q 422 4038 858 4394 
Q 1294 4750 2059 4750 
Q 2388 4750 2728 4690 
Q 3069 4631 3425 4513 
z
" transform="scale(0.015625)"/>
     </defs>
     <use xlink:href="#DejaVuSans-6e"/>
     <use xlink:href="#DejaVuSans-61" x="63.378906"/>
     <use xlink:href="#DejaVuSans-6d" x="124.658203"/>
     <use xlink:href="#DejaVuSans-65" x="222.070312"/>
     <use xlink:href="#DejaVuSans-20" x="283.59375"/>
     <use xlink:href="#DejaVuSans-3d" x="315.380859"/>
     <use xlink:href="#DejaVuSans-20" x="399.169922"/>
     <use xlink:href="#DejaVuSans-55" x="430.957031"/>
     <use xlink:href="#DejaVuSans-6e" x="504.150391"/>
     <use xlink:href="#DejaVuSans-69" x="567.529297"/>
     <use xlink:href="#DejaVuSans-74" x="595.3125"/>
     <use xlink:href="#DejaVuSans-65" x="634.521484"/>
     <use xlink:href="#DejaVuSans-64" x="696.044922"/>
     <use xlink:href="#DejaVuSans-20" x="759.521484"/>
     <use xlink:href="#DejaVuSans-53" x="791.308594"/>
     <use xlink:href="#DejaVuSans-74" x="854.785156"/>
     <use xlink:href="#DejaVuSans-61" x="893.994141"/>
     <use xlink:href="#DejaVuSans-74" x="955.273438"/>
     <use xlink:href="#DejaVuSans-65" x="994.482422"/>
     <use xlink:href="#DejaVuSans-73" x="1056.005859"/>
    </g>
   </g>
  </g>
  <g id="legend_1">
   <g id="text_33">
    <!-- variable -->
    <g transform="translate(1122.394375 167.803125) scale(0.1 -0.1)">
     <defs>
      <path id="DejaVuSans-72" d="M 2631 2963 
Q 2534 3019 2420 3045 
Q 2306 3072 2169 3072 
Q 1681 3072 1420 2755 
Q 1159 2438 1159 1844 
L 1159 0 
L 581 0 
L 581 3500 
L 1159 3500 
L 1159 2956 
Q 1341 3275 1631 3429 
Q 1922 3584 2338 3584 
Q 2397 3584 2469 3576 
Q 2541 3569 2628 3553 
L 2631 2963 
z
" transform="scale(0.015625)"/>
      <path id="DejaVuSans-62" d="M 3116 1747 
Q 3116 2381 2855 2742 
Q 2594 3103 2138 3103 
Q 1681 3103 1420 2742 
Q 1159 2381 1159 1747 
Q 1159 1113 1420 752 
Q 1681 391 2138 391 
Q 2594 391 2855 752 
Q 3116 1113 3116 1747 
z
M 1159 2969 
Q 1341 3281 1617 3432 
Q 1894 3584 2278 3584 
Q 2916 3584 3314 3078 
Q 3713 2572 3713 1747 
Q 3713 922 3314 415 
Q 2916 -91 2278 -91 
Q 1894 -91 1617 61 
Q 1341 213 1159 525 
L 1159 0 
L 581 0 
L 581 4863 
L 1159 4863 
L 1159 2969 
z
" transform="scale(0.015625)"/>
     </defs>
     <use xlink:href="#DejaVuSans-76"/>
     <use xlink:href="#DejaVuSans-61" x="59.179688"/>
     <use xlink:href="#DejaVuSans-72" x="120.458984"/>
     <use xlink:href="#DejaVuSans-69" x="161.572266"/>
     <use xlink:href="#DejaVuSans-61" x="189.355469"/>
     <use xlink:href="#DejaVuSans-62" x="250.634766"/>
     <use xlink:href="#DejaVuSans-6c" x="314.111328"/>
     <use xlink:href="#DejaVuSans-65" x="341.894531"/>
    </g>
   </g>
   <g id="line2d_51">
    <path d="M 1079.2225 178.98125 
L 1089.2225 178.98125 
L 1099.2225 178.98125 
" style="fill: none; stroke: #1f77b4; stroke-width: 1.5; stroke-linecap: square"/>
   </g>
   <g id="text_34">
    <!-- gdp_growth -->
    <g transform="translate(1107.2225 182.48125) scale(0.1 -0.1)">
     <defs>
      <path id="DejaVuSans-67" d="M 2906 1791 
Q 2906 2416 2648 2759 
Q 2391 3103 1925 3103 
Q 1463 3103 1205 2759 
Q 947 2416 947 1791 
Q 947 1169 1205 825 
Q 1463 481 1925 481 
Q 2391 481 2648 825 
Q 2906 1169 2906 1791 
z
M 3481 434 
Q 3481 -459 3084 -895 
Q 2688 -1331 1869 -1331 
Q 1566 -1331 1297 -1286 
Q 1028 -1241 775 -1147 
L 775 -588 
Q 1028 -725 1275 -790 
Q 1522 -856 1778 -856 
Q 2344 -856 2625 -561 
Q 2906 -266 2906 331 
L 2906 616 
Q 2728 306 2450 153 
Q 2172 0 1784 0 
Q 1141 0 747 490 
Q 353 981 353 1791 
Q 353 2603 747 3093 
Q 1141 3584 1784 3584 
Q 2172 3584 2450 3431 
Q 2728 3278 2906 2969 
L 2906 3500 
L 3481 3500 
L 3481 434 
z
" transform="scale(0.015625)"/>
      <path id="DejaVuSans-70" d="M 1159 525 
L 1159 -1331 
L 581 -1331 
L 581 3500 
L 1159 3500 
L 1159 2969 
Q 1341 3281 1617 3432 
Q 1894 3584 2278 3584 
Q 2916 3584 3314 3078 
Q 3713 2572 3713 1747 
Q 3713 922 3314 415 
Q 2916 -91 2278 -91 
Q 1894 -91 1617 61 
Q 1341 213 1159 525 
z
M 3116 1747 
Q 3116 2381 2855 2742 
Q 2594 3103 2138 3103 
Q 1681 3103 1420 2742 
Q 1159 2381 1159 1747 
Q 1159 1113 1420 752 
Q 1681 391 2138 391 
Q 2594 391 2855 752 
Q 3116 1113 3116 1747 
z
" transform="scale(0.015625)"/>
      <path id="DejaVuSans-5f" d="M 3263 -1063 
L 3263 -1509 
L -63 -1509 
L -63 -1063 
L 3263 -1063 
z
" transform="scale(0.015625)"/>
      <path id="DejaVuSans-77" d="M 269 3500 
L 844 3500 
L 1563 769 
L 2278 3500 
L 2956 3500 
L 3675 769 
L 4391 3500 
L 4966 3500 
L 4050 0 
L 3372 0 
L 2619 2869 
L 1863 0 
L 1184 0 
L 269 3500 
z
" transform="scale(0.015625)"/>
      <path id="DejaVuSans-68" d="M 3513 2113 
L 3513 0 
L 2938 0 
L 2938 2094 
Q 2938 2591 2744 2837 
Q 2550 3084 2163 3084 
Q 1697 3084 1428 2787 
Q 1159 2491 1159 1978 
L 1159 0 
L 581 0 
L 581 4863 
L 1159 4863 
L 1159 2956 
Q 1366 3272 1645 3428 
Q 1925 3584 2291 3584 
Q 2894 3584 3203 3211 
Q 3513 2838 3513 2113 
z
" transform="scale(0.015625)"/>
     </defs>
     <use xlink:href="#DejaVuSans-67"/>
     <use xlink:href="#DejaVuSans-64" x="63.476562"/>
     <use xlink:href="#DejaVuSans-70" x="126.953125"/>
     <use xlink:href="#DejaVuSans-5f" x="190.429688"/>
     <use xlink:href="#DejaVuSans-67" x="240.429688"/>
     <use xlink:href="#DejaVuSans-72" x="303.90625"/>
     <use xlink:href="#DejaVuSans-6f" x="342.769531"/>
     <use xlink:href="#DejaVuSans-77" x="403.951172"/>
     <use xlink:href="#DejaVuSans-74" x="485.738281"/>
     <use xlink:href="#DejaVuSans-68" x="524.947266"/>
    </g>
   </g>
   <g id="line2d_52">
    <path d="M 1079.2225 193.9375 
L 1089.2225 193.9375 
L 1099.2225 193.9375 
" style="fill: none; stroke: #ff7f0e; stroke-width: 1.5; stroke-linecap: square"/>
   </g>
   <g id="text_35">
    <!-- stock_index_growth -->
    <g transform="translate(1107.2225 197.4375) scale(0.1 -0.1)">
     <defs>
      <path id="DejaVuSans-6b" d="M 581 4863 
L 1159 4863 
L 1159 1991 
L 2875 3500 
L 3609 3500 
L 1753 1863 
L 3688 0 
L 2938 0 
L 1159 1709 
L 1159 0 
L 581 0 
L 581 4863 
z
" transform="scale(0.015625)"/>
     </defs>
     <use xlink:href="#DejaVuSans-73"/>
     <use xlink:href="#DejaVuSans-74" x="52.099609"/>
     <use xlink:href="#DejaVuSans-6f" x="91.308594"/>
     <use xlink:href="#DejaVuSans-63" x="152.490234"/>
     <use xlink:href="#DejaVuSans-6b" x="207.470703"/>
     <use xlink:href="#DejaVuSans-5f" x="265.380859"/>
     <use xlink:href="#DejaVuSans-69" x="315.380859"/>
     <use xlink:href="#DejaVuSans-6e" x="343.164062"/>
     <use xlink:href="#DejaVuSans-64" x="406.542969"/>
     <use xlink:href="#DejaVuSans-65" x="470.019531"/>
     <use xlink:href="#DejaVuSans-78" x="529.792969"/>
     <use xlink:href="#DejaVuSans-5f" x="588.972656"/>
     <use xlink:href="#DejaVuSans-67" x="638.972656"/>
     <use xlink:href="#DejaVuSans-72" x="702.449219"/>
     <use xlink:href="#DejaVuSans-6f" x="741.3125"/>
     <use xlink:href="#DejaVuSans-77" x="802.494141"/>
     <use xlink:href="#DejaVuSans-74" x="884.28125"/>
     <use xlink:href="#DejaVuSans-68" x="923.490234"/>
    </g>
   </g>
  </g>
 </g>
 <defs>
  <clipPath id="p950dfd4f2a">
   <rect x="63.197818" y="24.72" width="325.429767" height="293.32"/>
  </clipPath>
  <clipPath id="pfdcb5571d8">
   <rect x="402.809476" y="24.72" width="325.429767" height="293.32"/>
  </clipPath>
  <clipPath id="pd36293143f">
   <rect x="742.421133" y="24.72" width="325.429767" height="293.32"/>
  </clipPath>
 </defs>
</svg>
