<?xml version="1.0" encoding="utf-8" standalone="no"?>
<!DOCTYPE svg PUBLIC "-//W3C//DTD SVG 1.1//EN"
  "http://www.w3.org/Graphics/SVG/1.1/DTD/svg11.dtd">
<svg xmlns:xlink="http://www.w3.org/1999/xlink" width="460.8pt" height="345.6pt" viewBox="0 0 460.8 345.6" xmlns="http://www.w3.org/2000/svg" version="1.1">
 <metadata>
  <rdf:RDF xmlns:dc="http://purl.org/dc/elements/1.1/" xmlns:cc="http://creativecommons.org/ns#" xmlns:rdf="http://www.w3.org/1999/02/22-rdf-syntax-ns#">
   <cc:Work>
    <dc:type rdf:resource="http://purl.org/dc/dcmitype/StillImage"/>
    <dc:date>2022-12-17T17:35:09.635273</dc:date>
    <dc:format>image/svg+xml</dc:format>
    <dc:creator>
     <cc:Agent>
      <dc:title>Matplotlib v3.6.2, https://matplotlib.org/</dc:title>
     </cc:Agent>
    </dc:creator>
   </cc:Work>
  </rdf:RDF>
 </metadata>
 <defs>
  <style type="text/css">*{stroke-linejoin: round; stroke-linecap: butt}</style>
 </defs>
 <g id="figure_1">
  <g id="patch_1">
   <path d="M 0 345.6 
L 460.8 345.6 
L 460.8 0 
L 0 0 
z
" style="fill: #ffffff"/>
  </g>
  <g id="axes_1">
   <g id="patch_2">
    <path d="M 57.6 307.584 
L 414.72 307.584 
L 414.72 41.472 
L 57.6 41.472 
z
" style="fill: #ffffff"/>
   </g>
   <g id="PathCollection_1">
    <defs>
     <path id="mf6b77c3fce" d="M 0 3 
C 0.795609 3 1.55874 2.683901 2.12132 2.12132 
C 2.683901 1.55874 3 0.795609 3 0 
C 3 -0.795609 2.683901 -1.55874 2.12132 -2.12132 
C 1.55874 -2.683901 0.795609 -3 0 -3 
C -0.795609 -3 -1.55874 -2.683901 -2.12132 -2.12132 
C -2.683901 -1.55874 -3 -0.795609 -3 0 
C -3 0.795609 -2.683901 1.55874 -2.12132 2.12132 
C -1.55874 2.683901 -0.795609 3 0 3 
z
" style="stroke: #1f77b4; stroke-opacity: 0.8"/>
    </defs>
    <g clip-path="url(#p174ac2c1be)">
     <use xlink:href="#mf6b77c3fce" x="73.832727" y="239.650728" style="fill: #1f77b4; fill-opacity: 0.8; stroke: #1f77b4; stroke-opacity: 0.8"/>
     <use xlink:href="#mf6b77c3fce" x="91.170127" y="239.476759" style="fill: #1f77b4; fill-opacity: 0.8; stroke: #1f77b4; stroke-opacity: 0.8"/>
     <use xlink:href="#mf6b77c3fce" x="98.079847" y="244.345459" style="fill: #1f77b4; fill-opacity: 0.8; stroke: #1f77b4; stroke-opacity: 0.8"/>
     <use xlink:href="#mf6b77c3fce" x="108.333871" y="249.744161" style="fill: #1f77b4; fill-opacity: 0.8; stroke: #1f77b4; stroke-opacity: 0.8"/>
     <use xlink:href="#mf6b77c3fce" x="87.242632" y="247.527903" style="fill: #1f77b4; fill-opacity: 0.8; stroke: #1f77b4; stroke-opacity: 0.8"/>
     <use xlink:href="#mf6b77c3fce" x="102.871058" y="248.551048" style="fill: #1f77b4; fill-opacity: 0.8; stroke: #1f77b4; stroke-opacity: 0.8"/>
     <use xlink:href="#mf6b77c3fce" x="115.145689" y="244.239306" style="fill: #1f77b4; fill-opacity: 0.8; stroke: #1f77b4; stroke-opacity: 0.8"/>
     <use xlink:href="#mf6b77c3fce" x="132.449869" y="243.355222" style="fill: #1f77b4; fill-opacity: 0.8; stroke: #1f77b4; stroke-opacity: 0.8"/>
     <use xlink:href="#mf6b77c3fce" x="112.671428" y="239.466044" style="fill: #1f77b4; fill-opacity: 0.8; stroke: #1f77b4; stroke-opacity: 0.8"/>
     <use xlink:href="#mf6b77c3fce" x="128.609554" y="238.733784" style="fill: #1f77b4; fill-opacity: 0.8; stroke: #1f77b4; stroke-opacity: 0.8"/>
     <use xlink:href="#mf6b77c3fce" x="136.01845" y="238.122869" style="fill: #1f77b4; fill-opacity: 0.8; stroke: #1f77b4; stroke-opacity: 0.8"/>
     <use xlink:href="#mf6b77c3fce" x="154.300066" y="238.888656" style="fill: #1f77b4; fill-opacity: 0.8; stroke: #1f77b4; stroke-opacity: 0.8"/>
     <use xlink:href="#mf6b77c3fce" x="133.558251" y="235.540958" style="fill: #1f77b4; fill-opacity: 0.8; stroke: #1f77b4; stroke-opacity: 0.8"/>
     <use xlink:href="#mf6b77c3fce" x="150.767869" y="236.362274" style="fill: #1f77b4; fill-opacity: 0.8; stroke: #1f77b4; stroke-opacity: 0.8"/>
     <use xlink:href="#mf6b77c3fce" x="162.414487" y="235.789362" style="fill: #1f77b4; fill-opacity: 0.8; stroke: #1f77b4; stroke-opacity: 0.8"/>
     <use xlink:href="#mf6b77c3fce" x="173.018285" y="234.306555" style="fill: #1f77b4; fill-opacity: 0.8; stroke: #1f77b4; stroke-opacity: 0.8"/>
     <use xlink:href="#mf6b77c3fce" x="155.646435" y="233.581724" style="fill: #1f77b4; fill-opacity: 0.8; stroke: #1f77b4; stroke-opacity: 0.8"/>
     <use xlink:href="#mf6b77c3fce" x="174.404729" y="231.586821" style="fill: #1f77b4; fill-opacity: 0.8; stroke: #1f77b4; stroke-opacity: 0.8"/>
     <use xlink:href="#mf6b77c3fce" x="173.988514" y="232.267267" style="fill: #1f77b4; fill-opacity: 0.8; stroke: #1f77b4; stroke-opacity: 0.8"/>
     <use xlink:href="#mf6b77c3fce" x="188.604878" y="229.893565" style="fill: #1f77b4; fill-opacity: 0.8; stroke: #1f77b4; stroke-opacity: 0.8"/>
     <use xlink:href="#mf6b77c3fce" x="165.450848" y="226.83699" style="fill: #1f77b4; fill-opacity: 0.8; stroke: #1f77b4; stroke-opacity: 0.8"/>
     <use xlink:href="#mf6b77c3fce" x="185.066529" y="226.508007" style="fill: #1f77b4; fill-opacity: 0.8; stroke: #1f77b4; stroke-opacity: 0.8"/>
     <use xlink:href="#mf6b77c3fce" x="190.343733" y="223.336373" style="fill: #1f77b4; fill-opacity: 0.8; stroke: #1f77b4; stroke-opacity: 0.8"/>
     <use xlink:href="#mf6b77c3fce" x="205.90695" y="222.328372" style="fill: #1f77b4; fill-opacity: 0.8; stroke: #1f77b4; stroke-opacity: 0.8"/>
     <use xlink:href="#mf6b77c3fce" x="186.129915" y="224.304988" style="fill: #1f77b4; fill-opacity: 0.8; stroke: #1f77b4; stroke-opacity: 0.8"/>
     <use xlink:href="#mf6b77c3fce" x="191.733692" y="229.126017" style="fill: #1f77b4; fill-opacity: 0.8; stroke: #1f77b4; stroke-opacity: 0.8"/>
     <use xlink:href="#mf6b77c3fce" x="187.46978" y="230.315558" style="fill: #1f77b4; fill-opacity: 0.8; stroke: #1f77b4; stroke-opacity: 0.8"/>
     <use xlink:href="#mf6b77c3fce" x="184.790049" y="234.377467" style="fill: #1f77b4; fill-opacity: 0.8; stroke: #1f77b4; stroke-opacity: 0.8"/>
     <use xlink:href="#mf6b77c3fce" x="151.09497" y="243.383796" style="fill: #1f77b4; fill-opacity: 0.8; stroke: #1f77b4; stroke-opacity: 0.8"/>
     <use xlink:href="#mf6b77c3fce" x="164.998426" y="247.063764" style="fill: #1f77b4; fill-opacity: 0.8; stroke: #1f77b4; stroke-opacity: 0.8"/>
     <use xlink:href="#mf6b77c3fce" x="172.215737" y="242.329506" style="fill: #1f77b4; fill-opacity: 0.8; stroke: #1f77b4; stroke-opacity: 0.8"/>
     <use xlink:href="#mf6b77c3fce" x="190.330199" y="237.129108" style="fill: #1f77b4; fill-opacity: 0.8; stroke: #1f77b4; stroke-opacity: 0.8"/>
     <use xlink:href="#mf6b77c3fce" x="163.932404" y="234.747311" style="fill: #1f77b4; fill-opacity: 0.8; stroke: #1f77b4; stroke-opacity: 0.8"/>
     <use xlink:href="#mf6b77c3fce" x="185.755533" y="232.502098" style="fill: #1f77b4; fill-opacity: 0.8; stroke: #1f77b4; stroke-opacity: 0.8"/>
     <use xlink:href="#mf6b77c3fce" x="193.57414" y="237.458616" style="fill: #1f77b4; fill-opacity: 0.8; stroke: #1f77b4; stroke-opacity: 0.8"/>
     <use xlink:href="#mf6b77c3fce" x="207.921054" y="233.141207" style="fill: #1f77b4; fill-opacity: 0.8; stroke: #1f77b4; stroke-opacity: 0.8"/>
     <use xlink:href="#mf6b77c3fce" x="180.577989" y="228.514578" style="fill: #1f77b4; fill-opacity: 0.8; stroke: #1f77b4; stroke-opacity: 0.8"/>
     <use xlink:href="#mf6b77c3fce" x="195.828693" y="225.70655" style="fill: #1f77b4; fill-opacity: 0.8; stroke: #1f77b4; stroke-opacity: 0.8"/>
     <use xlink:href="#mf6b77c3fce" x="200.391055" y="225.694406" style="fill: #1f77b4; fill-opacity: 0.8; stroke: #1f77b4; stroke-opacity: 0.8"/>
     <use xlink:href="#mf6b77c3fce" x="217.016251" y="232.665923" style="fill: #1f77b4; fill-opacity: 0.8; stroke: #1f77b4; stroke-opacity: 0.8"/>
     <use xlink:href="#mf6b77c3fce" x="200.820276" y="227.615445" style="fill: #1f77b4; fill-opacity: 0.8; stroke: #1f77b4; stroke-opacity: 0.8"/>
     <use xlink:href="#mf6b77c3fce" x="211.398588" y="221.457623" style="fill: #1f77b4; fill-opacity: 0.8; stroke: #1f77b4; stroke-opacity: 0.8"/>
     <use xlink:href="#mf6b77c3fce" x="217.812647" y="223.015533" style="fill: #1f77b4; fill-opacity: 0.8; stroke: #1f77b4; stroke-opacity: 0.8"/>
     <use xlink:href="#mf6b77c3fce" x="227.486642" y="219.643308" style="fill: #1f77b4; fill-opacity: 0.8; stroke: #1f77b4; stroke-opacity: 0.8"/>
     <use xlink:href="#mf6b77c3fce" x="206.308048" y="219.855567" style="fill: #1f77b4; fill-opacity: 0.8; stroke: #1f77b4; stroke-opacity: 0.8"/>
     <use xlink:href="#mf6b77c3fce" x="221.535024" y="213.944006" style="fill: #1f77b4; fill-opacity: 0.8; stroke: #1f77b4; stroke-opacity: 0.8"/>
     <use xlink:href="#mf6b77c3fce" x="233.224705" y="212.119357" style="fill: #1f77b4; fill-opacity: 0.8; stroke: #1f77b4; stroke-opacity: 0.8"/>
     <use xlink:href="#mf6b77c3fce" x="249.070729" y="208.76123" style="fill: #1f77b4; fill-opacity: 0.8; stroke: #1f77b4; stroke-opacity: 0.8"/>
     <use xlink:href="#mf6b77c3fce" x="217.19606" y="201.671986" style="fill: #1f77b4; fill-opacity: 0.8; stroke: #1f77b4; stroke-opacity: 0.8"/>
     <use xlink:href="#mf6b77c3fce" x="237.364701" y="200.402628" style="fill: #1f77b4; fill-opacity: 0.8; stroke: #1f77b4; stroke-opacity: 0.8"/>
     <use xlink:href="#mf6b77c3fce" x="253.710429" y="196.496258" style="fill: #1f77b4; fill-opacity: 0.8; stroke: #1f77b4; stroke-opacity: 0.8"/>
     <use xlink:href="#mf6b77c3fce" x="268.430495" y="195.592077" style="fill: #1f77b4; fill-opacity: 0.8; stroke: #1f77b4; stroke-opacity: 0.8"/>
     <use xlink:href="#mf6b77c3fce" x="240.574016" y="191.647037" style="fill: #1f77b4; fill-opacity: 0.8; stroke: #1f77b4; stroke-opacity: 0.8"/>
     <use xlink:href="#mf6b77c3fce" x="263.559135" y="190.905776" style="fill: #1f77b4; fill-opacity: 0.8; stroke: #1f77b4; stroke-opacity: 0.8"/>
     <use xlink:href="#mf6b77c3fce" x="271.760561" y="190.713377" style="fill: #1f77b4; fill-opacity: 0.8; stroke: #1f77b4; stroke-opacity: 0.8"/>
     <use xlink:href="#mf6b77c3fce" x="281.351594" y="196.226089" style="fill: #1f77b4; fill-opacity: 0.8; stroke: #1f77b4; stroke-opacity: 0.8"/>
     <use xlink:href="#mf6b77c3fce" x="253.894807" y="190.588936" style="fill: #1f77b4; fill-opacity: 0.8; stroke: #1f77b4; stroke-opacity: 0.8"/>
     <use xlink:href="#mf6b77c3fce" x="274.806764" y="189.453638" style="fill: #1f77b4; fill-opacity: 0.8; stroke: #1f77b4; stroke-opacity: 0.8"/>
     <use xlink:href="#mf6b77c3fce" x="282.244662" y="187.32196" style="fill: #1f77b4; fill-opacity: 0.8; stroke: #1f77b4; stroke-opacity: 0.8"/>
     <use xlink:href="#mf6b77c3fce" x="297.267749" y="183.965261" style="fill: #1f77b4; fill-opacity: 0.8; stroke: #1f77b4; stroke-opacity: 0.8"/>
     <use xlink:href="#mf6b77c3fce" x="263.123235" y="180.321725" style="fill: #1f77b4; fill-opacity: 0.8; stroke: #1f77b4; stroke-opacity: 0.8"/>
     <use xlink:href="#mf6b77c3fce" x="292.949525" y="174.64733" style="fill: #1f77b4; fill-opacity: 0.8; stroke: #1f77b4; stroke-opacity: 0.8"/>
     <use xlink:href="#mf6b77c3fce" x="301.113688" y="171.530749" style="fill: #1f77b4; fill-opacity: 0.8; stroke: #1f77b4; stroke-opacity: 0.8"/>
     <use xlink:href="#mf6b77c3fce" x="320.69738" y="166.912597" style="fill: #1f77b4; fill-opacity: 0.8; stroke: #1f77b4; stroke-opacity: 0.8"/>
     <use xlink:href="#mf6b77c3fce" x="291.134739" y="159.52885" style="fill: #1f77b4; fill-opacity: 0.8; stroke: #1f77b4; stroke-opacity: 0.8"/>
     <use xlink:href="#mf6b77c3fce" x="316.910498" y="160.690103" style="fill: #1f77b4; fill-opacity: 0.8; stroke: #1f77b4; stroke-opacity: 0.8"/>
     <use xlink:href="#mf6b77c3fce" x="324.481626" y="156.588333" style="fill: #1f77b4; fill-opacity: 0.8; stroke: #1f77b4; stroke-opacity: 0.8"/>
     <use xlink:href="#mf6b77c3fce" x="338.939449" y="147.440895" style="fill: #1f77b4; fill-opacity: 0.8; stroke: #1f77b4; stroke-opacity: 0.8"/>
     <use xlink:href="#mf6b77c3fce" x="306.010183" y="164.842925" style="fill: #1f77b4; fill-opacity: 0.8; stroke: #1f77b4; stroke-opacity: 0.8"/>
     <use xlink:href="#mf6b77c3fce" x="335.575987" y="149.791547" style="fill: #1f77b4; fill-opacity: 0.8; stroke: #1f77b4; stroke-opacity: 0.8"/>
     <use xlink:href="#mf6b77c3fce" x="343.168383" y="144.447945" style="fill: #1f77b4; fill-opacity: 0.8; stroke: #1f77b4; stroke-opacity: 0.8"/>
     <use xlink:href="#mf6b77c3fce" x="361.759523" y="142.134773" style="fill: #1f77b4; fill-opacity: 0.8; stroke: #1f77b4; stroke-opacity: 0.8"/>
     <use xlink:href="#mf6b77c3fce" x="313.681673" y="130.094061" style="fill: #1f77b4; fill-opacity: 0.8; stroke: #1f77b4; stroke-opacity: 0.8"/>
     <use xlink:href="#mf6b77c3fce" x="262.262156" y="158.465845" style="fill: #1f77b4; fill-opacity: 0.8; stroke: #1f77b4; stroke-opacity: 0.8"/>
     <use xlink:href="#mf6b77c3fce" x="326.450735" y="134.737025" style="fill: #1f77b4; fill-opacity: 0.8; stroke: #1f77b4; stroke-opacity: 0.8"/>
     <use xlink:href="#mf6b77c3fce" x="351.506555" y="121.949337" style="fill: #1f77b4; fill-opacity: 0.8; stroke: #1f77b4; stroke-opacity: 0.8"/>
     <use xlink:href="#mf6b77c3fce" x="324.783768" y="103.260804" style="fill: #1f77b4; fill-opacity: 0.8; stroke: #1f77b4; stroke-opacity: 0.8"/>
     <use xlink:href="#mf6b77c3fce" x="359.798324" y="92.278859" style="fill: #1f77b4; fill-opacity: 0.8; stroke: #1f77b4; stroke-opacity: 0.8"/>
     <use xlink:href="#mf6b77c3fce" x="364.292138" y="76.900544" style="fill: #1f77b4; fill-opacity: 0.8; stroke: #1f77b4; stroke-opacity: 0.8"/>
     <use xlink:href="#mf6b77c3fce" x="398.487273" y="75.751578" style="fill: #1f77b4; fill-opacity: 0.8; stroke: #1f77b4; stroke-opacity: 0.8"/>
     <use xlink:href="#mf6b77c3fce" x="353.650375" y="53.568" style="fill: #1f77b4; fill-opacity: 0.8; stroke: #1f77b4; stroke-opacity: 0.8"/>
     <use xlink:href="#mf6b77c3fce" x="376.489081" y="63.845641" style="fill: #1f77b4; fill-opacity: 0.8; stroke: #1f77b4; stroke-opacity: 0.8"/>
     <use xlink:href="#mf6b77c3fce" x="381.736404" y="98.048548" style="fill: #1f77b4; fill-opacity: 0.8; stroke: #1f77b4; stroke-opacity: 0.8"/>
    </g>
   </g>
   <g id="PolyCollection_1">
    <path d="M 73.832727 273.401222 
L 73.832727 295.488 
L 77.112066 293.483321 
L 80.391405 291.412328 
L 83.670744 289.384179 
L 86.950083 287.385023 
L 90.229421 285.304035 
L 93.50876 283.199505 
L 96.788099 281.114998 
L 100.067438 279.099988 
L 103.346777 277.084978 
L 106.626116 275.068289 
L 109.905455 273.049988 
L 113.184793 270.93579 
L 116.464132 268.78487 
L 119.743471 266.803528 
L 123.02281 264.737131 
L 126.302149 262.59228 
L 129.581488 260.487405 
L 132.860826 258.484878 
L 136.140165 256.480649 
L 139.419504 254.481736 
L 142.698843 252.546992 
L 145.978182 250.589948 
L 149.257521 248.579197 
L 152.53686 246.537145 
L 155.816198 244.648315 
L 159.095537 242.583553 
L 162.374876 240.667277 
L 165.654215 238.732204 
L 168.933554 236.705703 
L 172.212893 234.750035 
L 175.492231 232.806295 
L 178.77157 230.839907 
L 182.050909 228.905365 
L 185.330248 227.051902 
L 188.609587 225.137033 
L 191.888926 223.268983 
L 195.168264 221.234868 
L 198.447603 219.340291 
L 201.726942 217.505647 
L 205.006281 215.676263 
L 208.28562 213.835286 
L 211.564959 212.050953 
L 214.844298 210.2608 
L 218.123636 208.536487 
L 221.402975 206.867022 
L 224.682314 205.153716 
L 227.961653 203.393036 
L 231.240992 201.606622 
L 234.520331 199.855132 
L 237.799669 198.23208 
L 241.079008 196.515277 
L 244.358347 194.899186 
L 247.637686 193.225104 
L 250.917025 191.644889 
L 254.196364 190.054159 
L 257.475702 188.408563 
L 260.755041 186.78896 
L 264.03438 185.154274 
L 267.313719 183.500803 
L 270.593058 181.934391 
L 273.872397 180.320108 
L 277.151736 178.762846 
L 280.431074 177.161616 
L 283.710413 175.664929 
L 286.989752 174.134801 
L 290.269091 172.573018 
L 293.54843 170.978782 
L 296.827769 169.365645 
L 300.107107 167.728891 
L 303.386446 166.139713 
L 306.665785 164.553662 
L 309.945124 162.988411 
L 313.224463 161.407576 
L 316.503802 159.813287 
L 319.78314 158.218997 
L 323.062479 156.624708 
L 326.341818 155.030418 
L 329.621157 153.436129 
L 332.900496 151.84184 
L 336.179835 150.24755 
L 339.459174 148.653261 
L 342.738512 147.07858 
L 346.017851 145.568066 
L 349.29719 144.057553 
L 352.576529 142.547039 
L 355.855868 141.036525 
L 359.135207 139.490566 
L 362.414545 137.886504 
L 365.693884 136.316677 
L 368.973223 134.745302 
L 372.252562 133.213321 
L 375.531901 131.681291 
L 378.81124 130.134224 
L 382.090579 128.570569 
L 385.369917 127.006914 
L 388.649256 125.443259 
L 391.928595 123.879605 
L 395.207934 122.31595 
L 398.487273 120.752295 
L 398.487273 89.247272 
L 398.487273 89.247272 
L 395.207934 91.368661 
L 391.928595 93.490051 
L 388.649256 95.61144 
L 385.369917 97.669478 
L 382.090579 99.633703 
L 378.81124 101.597928 
L 375.531901 103.562152 
L 372.252562 105.526377 
L 368.973223 107.490602 
L 365.693884 109.508243 
L 362.414545 111.646028 
L 359.135207 113.783814 
L 355.855868 115.921599 
L 352.576529 118.059384 
L 349.29719 120.113694 
L 346.017851 122.147044 
L 342.738512 124.181146 
L 339.459174 126.199457 
L 336.179835 128.210007 
L 332.900496 130.220556 
L 329.621157 132.247274 
L 326.341818 134.268248 
L 323.062479 136.245317 
L 319.78314 138.323903 
L 316.503802 140.416144 
L 313.224463 142.490083 
L 309.945124 144.521607 
L 306.665785 146.55313 
L 303.386446 148.586356 
L 300.107107 150.621555 
L 296.827769 152.65695 
L 293.54843 154.692828 
L 290.269091 156.757508 
L 286.989752 158.762864 
L 283.710413 160.846982 
L 280.431074 162.82369 
L 277.151736 164.797582 
L 273.872397 166.775023 
L 270.593058 168.753049 
L 267.313719 170.816926 
L 264.03438 172.780135 
L 260.755041 174.791402 
L 257.475702 176.799226 
L 254.196364 178.837972 
L 250.917025 180.891945 
L 247.637686 182.838867 
L 244.358347 184.756063 
L 241.079008 186.731346 
L 237.799669 188.626223 
L 234.520331 190.532364 
L 231.240992 192.470552 
L 227.961653 194.379008 
L 224.682314 196.147294 
L 221.402975 197.955514 
L 218.123636 199.862856 
L 214.844298 201.711023 
L 211.564959 203.637473 
L 208.28562 205.564019 
L 205.006281 207.351407 
L 201.726942 209.118778 
L 198.447603 210.988476 
L 195.168264 212.767696 
L 191.888926 214.569711 
L 188.609587 216.257597 
L 185.330248 218.03433 
L 182.050909 219.905527 
L 178.77157 221.523403 
L 175.492231 223.195054 
L 172.212893 224.848282 
L 168.933554 226.535817 
L 165.654215 228.170253 
L 162.374876 229.832936 
L 159.095537 231.536022 
L 155.816198 233.200625 
L 152.53686 234.818887 
L 149.257521 236.460698 
L 145.978182 238.10299 
L 142.698843 239.790323 
L 139.419504 241.456876 
L 136.140165 243.141001 
L 132.860826 244.731516 
L 129.581488 246.322031 
L 126.302149 247.952205 
L 123.02281 249.58206 
L 119.743471 251.113698 
L 116.464132 252.671653 
L 113.184793 254.266053 
L 109.905455 255.857154 
L 106.626116 257.511292 
L 103.346777 259.102925 
L 100.067438 260.744204 
L 96.788099 262.391996 
L 93.50876 264.09419 
L 90.229421 265.668652 
L 86.950083 267.194053 
L 83.670744 268.719455 
L 80.391405 270.25445 
L 77.112066 271.827206 
L 73.832727 273.401222 
z
" clip-path="url(#p174ac2c1be)" style="fill: #1f77b4; fill-opacity: 0.15"/>
   </g>
   <g id="matplotlib.axis_1">
    <g id="xtick_1">
     <g id="line2d_1">
      <defs>
       <path id="mffcfe78e35" d="M 0 0 
L 0 3.5 
" style="stroke: #000000; stroke-width: 0.8"/>
      </defs>
      <g>
       <use xlink:href="#mffcfe78e35" x="71.395026" y="307.584" style="stroke: #000000; stroke-width: 0.8"/>
      </g>
     </g>
     <g id="text_1">
      <!-- 3250 -->
      <g transform="translate(58.670026 322.182437) scale(0.1 -0.1)">
       <defs>
        <path id="DejaVuSans-33" d="M 2597 2516 
Q 3050 2419 3304 2112 
Q 3559 1806 3559 1356 
Q 3559 666 3084 287 
Q 2609 -91 1734 -91 
Q 1441 -91 1130 -33 
Q 819 25 488 141 
L 488 750 
Q 750 597 1062 519 
Q 1375 441 1716 441 
Q 2309 441 2620 675 
Q 2931 909 2931 1356 
Q 2931 1769 2642 2001 
Q 2353 2234 1838 2234 
L 1294 2234 
L 1294 2753 
L 1863 2753 
Q 2328 2753 2575 2939 
Q 2822 3125 2822 3475 
Q 2822 3834 2567 4026 
Q 2313 4219 1838 4219 
Q 1578 4219 1281 4162 
Q 984 4106 628 3988 
L 628 4550 
Q 988 4650 1302 4700 
Q 1616 4750 1894 4750 
Q 2613 4750 3031 4423 
Q 3450 4097 3450 3541 
Q 3450 3153 3228 2886 
Q 3006 2619 2597 2516 
z
" transform="scale(0.015625)"/>
        <path id="DejaVuSans-32" d="M 1228 531 
L 3431 531 
L 3431 0 
L 469 0 
L 469 531 
Q 828 903 1448 1529 
Q 2069 2156 2228 2338 
Q 2531 2678 2651 2914 
Q 2772 3150 2772 3378 
Q 2772 3750 2511 3984 
Q 2250 4219 1831 4219 
Q 1534 4219 1204 4116 
Q 875 4013 500 3803 
L 500 4441 
Q 881 4594 1212 4672 
Q 1544 4750 1819 4750 
Q 2544 4750 2975 4387 
Q 3406 4025 3406 3419 
Q 3406 3131 3298 2873 
Q 3191 2616 2906 2266 
Q 2828 2175 2409 1742 
Q 1991 1309 1228 531 
z
" transform="scale(0.015625)"/>
        <path id="DejaVuSans-35" d="M 691 4666 
L 3169 4666 
L 3169 4134 
L 1269 4134 
L 1269 2991 
Q 1406 3038 1543 3061 
Q 1681 3084 1819 3084 
Q 2600 3084 3056 2656 
Q 3513 2228 3513 1497 
Q 3513 744 3044 326 
Q 2575 -91 1722 -91 
Q 1428 -91 1123 -41 
Q 819 9 494 109 
L 494 744 
Q 775 591 1075 516 
Q 1375 441 1709 441 
Q 2250 441 2565 725 
Q 2881 1009 2881 1497 
Q 2881 1984 2565 2268 
Q 2250 2553 1709 2553 
Q 1456 2553 1204 2497 
Q 953 2441 691 2322 
L 691 4666 
z
" transform="scale(0.015625)"/>
        <path id="DejaVuSans-30" d="M 2034 4250 
Q 1547 4250 1301 3770 
Q 1056 3291 1056 2328 
Q 1056 1369 1301 889 
Q 1547 409 2034 409 
Q 2525 409 2770 889 
Q 3016 1369 3016 2328 
Q 3016 3291 2770 3770 
Q 2525 4250 2034 4250 
z
M 2034 4750 
Q 2819 4750 3233 4129 
Q 3647 3509 3647 2328 
Q 3647 1150 3233 529 
Q 2819 -91 2034 -91 
Q 1250 -91 836 529 
Q 422 1150 422 2328 
Q 422 3509 836 4129 
Q 1250 4750 2034 4750 
z
" transform="scale(0.015625)"/>
       </defs>
       <use xlink:href="#DejaVuSans-33"/>
       <use xlink:href="#DejaVuSans-32" x="63.623047"/>
       <use xlink:href="#DejaVuSans-35" x="127.246094"/>
       <use xlink:href="#DejaVuSans-30" x="190.869141"/>
      </g>
     </g>
    </g>
    <g id="xtick_2">
     <g id="line2d_2">
      <g>
       <use xlink:href="#mffcfe78e35" x="115.336571" y="307.584" style="stroke: #000000; stroke-width: 0.8"/>
      </g>
     </g>
     <g id="text_2">
      <!-- 3500 -->
      <g transform="translate(102.611571 322.182437) scale(0.1 -0.1)">
       <use xlink:href="#DejaVuSans-33"/>
       <use xlink:href="#DejaVuSans-35" x="63.623047"/>
       <use xlink:href="#DejaVuSans-30" x="127.246094"/>
       <use xlink:href="#DejaVuSans-30" x="190.869141"/>
      </g>
     </g>
    </g>
    <g id="xtick_3">
     <g id="line2d_3">
      <g>
       <use xlink:href="#mffcfe78e35" x="159.278116" y="307.584" style="stroke: #000000; stroke-width: 0.8"/>
      </g>
     </g>
     <g id="text_3">
      <!-- 3750 -->
      <g transform="translate(146.553116 322.182437) scale(0.1 -0.1)">
       <defs>
        <path id="DejaVuSans-37" d="M 525 4666 
L 3525 4666 
L 3525 4397 
L 1831 0 
L 1172 0 
L 2766 4134 
L 525 4134 
L 525 4666 
z
" transform="scale(0.015625)"/>
       </defs>
       <use xlink:href="#DejaVuSans-33"/>
       <use xlink:href="#DejaVuSans-37" x="63.623047"/>
       <use xlink:href="#DejaVuSans-35" x="127.246094"/>
       <use xlink:href="#DejaVuSans-30" x="190.869141"/>
      </g>
     </g>
    </g>
    <g id="xtick_4">
     <g id="line2d_4">
      <g>
       <use xlink:href="#mffcfe78e35" x="203.21966" y="307.584" style="stroke: #000000; stroke-width: 0.8"/>
      </g>
     </g>
     <g id="text_4">
      <!-- 4000 -->
      <g transform="translate(190.49466 322.182437) scale(0.1 -0.1)">
       <defs>
        <path id="DejaVuSans-34" d="M 2419 4116 
L 825 1625 
L 2419 1625 
L 2419 4116 
z
M 2253 4666 
L 3047 4666 
L 3047 1625 
L 3713 1625 
L 3713 1100 
L 3047 1100 
L 3047 0 
L 2419 0 
L 2419 1100 
L 313 1100 
L 313 1709 
L 2253 4666 
z
" transform="scale(0.015625)"/>
       </defs>
       <use xlink:href="#DejaVuSans-34"/>
       <use xlink:href="#DejaVuSans-30" x="63.623047"/>
       <use xlink:href="#DejaVuSans-30" x="127.246094"/>
       <use xlink:href="#DejaVuSans-30" x="190.869141"/>
      </g>
     </g>
    </g>
    <g id="xtick_5">
     <g id="line2d_5">
      <g>
       <use xlink:href="#mffcfe78e35" x="247.161205" y="307.584" style="stroke: #000000; stroke-width: 0.8"/>
      </g>
     </g>
     <g id="text_5">
      <!-- 4250 -->
      <g transform="translate(234.436205 322.182437) scale(0.1 -0.1)">
       <use xlink:href="#DejaVuSans-34"/>
       <use xlink:href="#DejaVuSans-32" x="63.623047"/>
       <use xlink:href="#DejaVuSans-35" x="127.246094"/>
       <use xlink:href="#DejaVuSans-30" x="190.869141"/>
      </g>
     </g>
    </g>
    <g id="xtick_6">
     <g id="line2d_6">
      <g>
       <use xlink:href="#mffcfe78e35" x="291.10275" y="307.584" style="stroke: #000000; stroke-width: 0.8"/>
      </g>
     </g>
     <g id="text_6">
      <!-- 4500 -->
      <g transform="translate(278.37775 322.182437) scale(0.1 -0.1)">
       <use xlink:href="#DejaVuSans-34"/>
       <use xlink:href="#DejaVuSans-35" x="63.623047"/>
       <use xlink:href="#DejaVuSans-30" x="127.246094"/>
       <use xlink:href="#DejaVuSans-30" x="190.869141"/>
      </g>
     </g>
    </g>
    <g id="xtick_7">
     <g id="line2d_7">
      <g>
       <use xlink:href="#mffcfe78e35" x="335.044295" y="307.584" style="stroke: #000000; stroke-width: 0.8"/>
      </g>
     </g>
     <g id="text_7">
      <!-- 4750 -->
      <g transform="translate(322.319295 322.182437) scale(0.1 -0.1)">
       <use xlink:href="#DejaVuSans-34"/>
       <use xlink:href="#DejaVuSans-37" x="63.623047"/>
       <use xlink:href="#DejaVuSans-35" x="127.246094"/>
       <use xlink:href="#DejaVuSans-30" x="190.869141"/>
      </g>
     </g>
    </g>
    <g id="xtick_8">
     <g id="line2d_8">
      <g>
       <use xlink:href="#mffcfe78e35" x="378.985839" y="307.584" style="stroke: #000000; stroke-width: 0.8"/>
      </g>
     </g>
     <g id="text_8">
      <!-- 5000 -->
      <g transform="translate(366.260839 322.182437) scale(0.1 -0.1)">
       <use xlink:href="#DejaVuSans-35"/>
       <use xlink:href="#DejaVuSans-30" x="63.623047"/>
       <use xlink:href="#DejaVuSans-30" x="127.246094"/>
       <use xlink:href="#DejaVuSans-30" x="190.869141"/>
      </g>
     </g>
    </g>
    <g id="text_9">
     <!-- US GDP -->
     <g transform="translate(216.998281 335.860562) scale(0.1 -0.1)">
      <defs>
       <path id="DejaVuSans-55" d="M 556 4666 
L 1191 4666 
L 1191 1831 
Q 1191 1081 1462 751 
Q 1734 422 2344 422 
Q 2950 422 3222 751 
Q 3494 1081 3494 1831 
L 3494 4666 
L 4128 4666 
L 4128 1753 
Q 4128 841 3676 375 
Q 3225 -91 2344 -91 
Q 1459 -91 1007 375 
Q 556 841 556 1753 
L 556 4666 
z
" transform="scale(0.015625)"/>
       <path id="DejaVuSans-53" d="M 3425 4513 
L 3425 3897 
Q 3066 4069 2747 4153 
Q 2428 4238 2131 4238 
Q 1616 4238 1336 4038 
Q 1056 3838 1056 3469 
Q 1056 3159 1242 3001 
Q 1428 2844 1947 2747 
L 2328 2669 
Q 3034 2534 3370 2195 
Q 3706 1856 3706 1288 
Q 3706 609 3251 259 
Q 2797 -91 1919 -91 
Q 1588 -91 1214 -16 
Q 841 59 441 206 
L 441 856 
Q 825 641 1194 531 
Q 1563 422 1919 422 
Q 2459 422 2753 634 
Q 3047 847 3047 1241 
Q 3047 1584 2836 1778 
Q 2625 1972 2144 2069 
L 1759 2144 
Q 1053 2284 737 2584 
Q 422 2884 422 3419 
Q 422 4038 858 4394 
Q 1294 4750 2059 4750 
Q 2388 4750 2728 4690 
Q 3069 4631 3425 4513 
z
" transform="scale(0.015625)"/>
       <path id="DejaVuSans-20" transform="scale(0.015625)"/>
       <path id="DejaVuSans-47" d="M 3809 666 
L 3809 1919 
L 2778 1919 
L 2778 2438 
L 4434 2438 
L 4434 434 
Q 4069 175 3628 42 
Q 3188 -91 2688 -91 
Q 1594 -91 976 548 
Q 359 1188 359 2328 
Q 359 3472 976 4111 
Q 1594 4750 2688 4750 
Q 3144 4750 3555 4637 
Q 3966 4525 4313 4306 
L 4313 3634 
Q 3963 3931 3569 4081 
Q 3175 4231 2741 4231 
Q 1884 4231 1454 3753 
Q 1025 3275 1025 2328 
Q 1025 1384 1454 906 
Q 1884 428 2741 428 
Q 3075 428 3337 486 
Q 3600 544 3809 666 
z
" transform="scale(0.015625)"/>
       <path id="DejaVuSans-44" d="M 1259 4147 
L 1259 519 
L 2022 519 
Q 2988 519 3436 956 
Q 3884 1394 3884 2338 
Q 3884 3275 3436 3711 
Q 2988 4147 2022 4147 
L 1259 4147 
z
M 628 4666 
L 1925 4666 
Q 3281 4666 3915 4102 
Q 4550 3538 4550 2338 
Q 4550 1131 3912 565 
Q 3275 0 1925 0 
L 628 0 
L 628 4666 
z
" transform="scale(0.015625)"/>
       <path id="DejaVuSans-50" d="M 1259 4147 
L 1259 2394 
L 2053 2394 
Q 2494 2394 2734 2622 
Q 2975 2850 2975 3272 
Q 2975 3691 2734 3919 
Q 2494 4147 2053 4147 
L 1259 4147 
z
M 628 4666 
L 2053 4666 
Q 2838 4666 3239 4311 
Q 3641 3956 3641 3272 
Q 3641 2581 3239 2228 
Q 2838 1875 2053 1875 
L 1259 1875 
L 1259 0 
L 628 0 
L 628 4666 
z
" transform="scale(0.015625)"/>
      </defs>
      <use xlink:href="#DejaVuSans-55"/>
      <use xlink:href="#DejaVuSans-53" x="73.193359"/>
      <use xlink:href="#DejaVuSans-20" x="136.669922"/>
      <use xlink:href="#DejaVuSans-47" x="168.457031"/>
      <use xlink:href="#DejaVuSans-44" x="245.947266"/>
      <use xlink:href="#DejaVuSans-50" x="322.949219"/>
     </g>
    </g>
   </g>
   <g id="matplotlib.axis_2">
    <g id="ytick_1">
     <g id="line2d_9">
      <defs>
       <path id="m8d595b6406" d="M 0 0 
L -3.5 0 
" style="stroke: #000000; stroke-width: 0.8"/>
      </defs>
      <g>
       <use xlink:href="#m8d595b6406" x="57.6" y="276.139852" style="stroke: #000000; stroke-width: 0.8"/>
      </g>
     </g>
     <g id="text_10">
      <!-- 0 -->
      <g transform="translate(44.2375 279.939071) scale(0.1 -0.1)">
       <use xlink:href="#DejaVuSans-30"/>
      </g>
     </g>
    </g>
    <g id="ytick_2">
     <g id="line2d_10">
      <g>
       <use xlink:href="#m8d595b6406" x="57.6" y="228.516292" style="stroke: #000000; stroke-width: 0.8"/>
      </g>
     </g>
     <g id="text_11">
      <!-- 100 -->
      <g transform="translate(31.5125 232.315511) scale(0.1 -0.1)">
       <defs>
        <path id="DejaVuSans-31" d="M 794 531 
L 1825 531 
L 1825 4091 
L 703 3866 
L 703 4441 
L 1819 4666 
L 2450 4666 
L 2450 531 
L 3481 531 
L 3481 0 
L 794 0 
L 794 531 
z
" transform="scale(0.015625)"/>
       </defs>
       <use xlink:href="#DejaVuSans-31"/>
       <use xlink:href="#DejaVuSans-30" x="63.623047"/>
       <use xlink:href="#DejaVuSans-30" x="127.246094"/>
      </g>
     </g>
    </g>
    <g id="ytick_3">
     <g id="line2d_11">
      <g>
       <use xlink:href="#m8d595b6406" x="57.6" y="180.892732" style="stroke: #000000; stroke-width: 0.8"/>
      </g>
     </g>
     <g id="text_12">
      <!-- 200 -->
      <g transform="translate(31.5125 184.69195) scale(0.1 -0.1)">
       <use xlink:href="#DejaVuSans-32"/>
       <use xlink:href="#DejaVuSans-30" x="63.623047"/>
       <use xlink:href="#DejaVuSans-30" x="127.246094"/>
      </g>
     </g>
    </g>
    <g id="ytick_4">
     <g id="line2d_12">
      <g>
       <use xlink:href="#m8d595b6406" x="57.6" y="133.269171" style="stroke: #000000; stroke-width: 0.8"/>
      </g>
     </g>
     <g id="text_13">
      <!-- 300 -->
      <g transform="translate(31.5125 137.06839) scale(0.1 -0.1)">
       <use xlink:href="#DejaVuSans-33"/>
       <use xlink:href="#DejaVuSans-30" x="63.623047"/>
       <use xlink:href="#DejaVuSans-30" x="127.246094"/>
      </g>
     </g>
    </g>
    <g id="ytick_5">
     <g id="line2d_13">
      <g>
       <use xlink:href="#m8d595b6406" x="57.6" y="85.645611" style="stroke: #000000; stroke-width: 0.8"/>
      </g>
     </g>
     <g id="text_14">
      <!-- 400 -->
      <g transform="translate(31.5125 89.44483) scale(0.1 -0.1)">
       <use xlink:href="#DejaVuSans-34"/>
       <use xlink:href="#DejaVuSans-30" x="63.623047"/>
       <use xlink:href="#DejaVuSans-30" x="127.246094"/>
      </g>
     </g>
    </g>
    <g id="text_15">
     <!-- SPY -->
     <g transform="translate(25.432812 183.658469) rotate(-90) scale(0.1 -0.1)">
      <defs>
       <path id="DejaVuSans-59" d="M -13 4666 
L 666 4666 
L 1959 2747 
L 3244 4666 
L 3922 4666 
L 2272 2222 
L 2272 0 
L 1638 0 
L 1638 2222 
L -13 4666 
z
" transform="scale(0.015625)"/>
      </defs>
      <use xlink:href="#DejaVuSans-53"/>
      <use xlink:href="#DejaVuSans-50" x="63.476562"/>
      <use xlink:href="#DejaVuSans-59" x="121.529297"/>
     </g>
    </g>
   </g>
   <g id="line2d_14">
    <path d="M 73.832727 283.835879 
L 77.112066 282.02456 
L 80.391405 280.213241 
L 83.670744 278.401922 
L 86.950083 276.590603 
L 90.229421 274.779284 
L 93.50876 272.967965 
L 96.788099 271.156646 
L 100.067438 269.345327 
L 103.346777 267.534008 
L 106.626116 265.722689 
L 109.905455 263.91137 
L 113.184793 262.100051 
L 116.464132 260.288733 
L 119.743471 258.477414 
L 123.02281 256.666095 
L 126.302149 254.854776 
L 129.581488 253.043457 
L 132.860826 251.232138 
L 136.140165 249.420819 
L 139.419504 247.6095 
L 142.698843 245.798181 
L 145.978182 243.986862 
L 149.257521 242.175543 
L 152.53686 240.364224 
L 155.816198 238.552905 
L 159.095537 236.741586 
L 162.374876 234.930267 
L 165.654215 233.118948 
L 168.933554 231.307629 
L 172.212893 229.49631 
L 175.492231 227.684991 
L 178.77157 225.873673 
L 182.050909 224.062354 
L 185.330248 222.251035 
L 188.609587 220.439716 
L 191.888926 218.628397 
L 195.168264 216.817078 
L 198.447603 215.005759 
L 201.726942 213.19444 
L 205.006281 211.383121 
L 208.28562 209.571802 
L 211.564959 207.760483 
L 214.844298 205.949164 
L 218.123636 204.137845 
L 221.402975 202.326526 
L 224.682314 200.515207 
L 227.961653 198.703888 
L 231.240992 196.892569 
L 234.520331 195.08125 
L 237.799669 193.269932 
L 241.079008 191.458613 
L 244.358347 189.647294 
L 247.637686 187.835975 
L 250.917025 186.024656 
L 254.196364 184.213337 
L 257.475702 182.402018 
L 260.755041 180.590699 
L 264.03438 178.77938 
L 267.313719 176.968061 
L 270.593058 175.156742 
L 273.872397 173.345423 
L 277.151736 171.534104 
L 280.431074 169.722785 
L 283.710413 167.911466 
L 286.989752 166.100147 
L 290.269091 164.288828 
L 293.54843 162.477509 
L 296.827769 160.66619 
L 300.107107 158.854872 
L 303.386446 157.043553 
L 306.665785 155.232234 
L 309.945124 153.420915 
L 313.224463 151.609596 
L 316.503802 149.798277 
L 319.78314 147.986958 
L 323.062479 146.175639 
L 326.341818 144.36432 
L 329.621157 142.553001 
L 332.900496 140.741682 
L 336.179835 138.930363 
L 339.459174 137.119044 
L 342.738512 135.307725 
L 346.017851 133.496406 
L 349.29719 131.685087 
L 352.576529 129.873768 
L 355.855868 128.062449 
L 359.135207 126.25113 
L 362.414545 124.439812 
L 365.693884 122.628493 
L 368.973223 120.817174 
L 372.252562 119.005855 
L 375.531901 117.194536 
L 378.81124 115.383217 
L 382.090579 113.571898 
L 385.369917 111.760579 
L 388.649256 109.94926 
L 391.928595 108.137941 
L 395.207934 106.326622 
L 398.487273 104.515303 
" clip-path="url(#p174ac2c1be)" style="fill: none; stroke: #1f77b4; stroke-width: 2.25; stroke-linecap: square"/>
   </g>
   <g id="patch_3">
    <path d="M 57.6 307.584 
L 57.6 41.472 
" style="fill: none; stroke: #000000; stroke-width: 0.8; stroke-linejoin: miter; stroke-linecap: square"/>
   </g>
   <g id="patch_4">
    <path d="M 414.72 307.584 
L 414.72 41.472 
" style="fill: none; stroke: #000000; stroke-width: 0.8; stroke-linejoin: miter; stroke-linecap: square"/>
   </g>
   <g id="patch_5">
    <path d="M 57.6 307.584 
L 414.72 307.584 
" style="fill: none; stroke: #000000; stroke-width: 0.8; stroke-linejoin: miter; stroke-linecap: square"/>
   </g>
   <g id="patch_6">
    <path d="M 57.6 41.472 
L 414.72 41.472 
" style="fill: none; stroke: #000000; stroke-width: 0.8; stroke-linejoin: miter; stroke-linecap: square"/>
   </g>
   <g id="text_16">
    <!-- Regression of US GDP vs. SPY -->
    <g transform="translate(147.399375 35.472) scale(0.12 -0.12)">
     <defs>
      <path id="DejaVuSans-52" d="M 2841 2188 
Q 3044 2119 3236 1894 
Q 3428 1669 3622 1275 
L 4263 0 
L 3584 0 
L 2988 1197 
Q 2756 1666 2539 1819 
Q 2322 1972 1947 1972 
L 1259 1972 
L 1259 0 
L 628 0 
L 628 4666 
L 2053 4666 
Q 2853 4666 3247 4331 
Q 3641 3997 3641 3322 
Q 3641 2881 3436 2590 
Q 3231 2300 2841 2188 
z
M 1259 4147 
L 1259 2491 
L 2053 2491 
Q 2509 2491 2742 2702 
Q 2975 2913 2975 3322 
Q 2975 3731 2742 3939 
Q 2509 4147 2053 4147 
L 1259 4147 
z
" transform="scale(0.015625)"/>
      <path id="DejaVuSans-65" d="M 3597 1894 
L 3597 1613 
L 953 1613 
Q 991 1019 1311 708 
Q 1631 397 2203 397 
Q 2534 397 2845 478 
Q 3156 559 3463 722 
L 3463 178 
Q 3153 47 2828 -22 
Q 2503 -91 2169 -91 
Q 1331 -91 842 396 
Q 353 884 353 1716 
Q 353 2575 817 3079 
Q 1281 3584 2069 3584 
Q 2775 3584 3186 3129 
Q 3597 2675 3597 1894 
z
M 3022 2063 
Q 3016 2534 2758 2815 
Q 2500 3097 2075 3097 
Q 1594 3097 1305 2825 
Q 1016 2553 972 2059 
L 3022 2063 
z
" transform="scale(0.015625)"/>
      <path id="DejaVuSans-67" d="M 2906 1791 
Q 2906 2416 2648 2759 
Q 2391 3103 1925 3103 
Q 1463 3103 1205 2759 
Q 947 2416 947 1791 
Q 947 1169 1205 825 
Q 1463 481 1925 481 
Q 2391 481 2648 825 
Q 2906 1169 2906 1791 
z
M 3481 434 
Q 3481 -459 3084 -895 
Q 2688 -1331 1869 -1331 
Q 1566 -1331 1297 -1286 
Q 1028 -1241 775 -1147 
L 775 -588 
Q 1028 -725 1275 -790 
Q 1522 -856 1778 -856 
Q 2344 -856 2625 -561 
Q 2906 -266 2906 331 
L 2906 616 
Q 2728 306 2450 153 
Q 2172 0 1784 0 
Q 1141 0 747 490 
Q 353 981 353 1791 
Q 353 2603 747 3093 
Q 1141 3584 1784 3584 
Q 2172 3584 2450 3431 
Q 2728 3278 2906 2969 
L 2906 3500 
L 3481 3500 
L 3481 434 
z
" transform="scale(0.015625)"/>
      <path id="DejaVuSans-72" d="M 2631 2963 
Q 2534 3019 2420 3045 
Q 2306 3072 2169 3072 
Q 1681 3072 1420 2755 
Q 1159 2438 1159 1844 
L 1159 0 
L 581 0 
L 581 3500 
L 1159 3500 
L 1159 2956 
Q 1341 3275 1631 3429 
Q 1922 3584 2338 3584 
Q 2397 3584 2469 3576 
Q 2541 3569 2628 3553 
L 2631 2963 
z
" transform="scale(0.015625)"/>
      <path id="DejaVuSans-73" d="M 2834 3397 
L 2834 2853 
Q 2591 2978 2328 3040 
Q 2066 3103 1784 3103 
Q 1356 3103 1142 2972 
Q 928 2841 928 2578 
Q 928 2378 1081 2264 
Q 1234 2150 1697 2047 
L 1894 2003 
Q 2506 1872 2764 1633 
Q 3022 1394 3022 966 
Q 3022 478 2636 193 
Q 2250 -91 1575 -91 
Q 1294 -91 989 -36 
Q 684 19 347 128 
L 347 722 
Q 666 556 975 473 
Q 1284 391 1588 391 
Q 1994 391 2212 530 
Q 2431 669 2431 922 
Q 2431 1156 2273 1281 
Q 2116 1406 1581 1522 
L 1381 1569 
Q 847 1681 609 1914 
Q 372 2147 372 2553 
Q 372 3047 722 3315 
Q 1072 3584 1716 3584 
Q 2034 3584 2315 3537 
Q 2597 3491 2834 3397 
z
" transform="scale(0.015625)"/>
      <path id="DejaVuSans-69" d="M 603 3500 
L 1178 3500 
L 1178 0 
L 603 0 
L 603 3500 
z
M 603 4863 
L 1178 4863 
L 1178 4134 
L 603 4134 
L 603 4863 
z
" transform="scale(0.015625)"/>
      <path id="DejaVuSans-6f" d="M 1959 3097 
Q 1497 3097 1228 2736 
Q 959 2375 959 1747 
Q 959 1119 1226 758 
Q 1494 397 1959 397 
Q 2419 397 2687 759 
Q 2956 1122 2956 1747 
Q 2956 2369 2687 2733 
Q 2419 3097 1959 3097 
z
M 1959 3584 
Q 2709 3584 3137 3096 
Q 3566 2609 3566 1747 
Q 3566 888 3137 398 
Q 2709 -91 1959 -91 
Q 1206 -91 779 398 
Q 353 888 353 1747 
Q 353 2609 779 3096 
Q 1206 3584 1959 3584 
z
" transform="scale(0.015625)"/>
      <path id="DejaVuSans-6e" d="M 3513 2113 
L 3513 0 
L 2938 0 
L 2938 2094 
Q 2938 2591 2744 2837 
Q 2550 3084 2163 3084 
Q 1697 3084 1428 2787 
Q 1159 2491 1159 1978 
L 1159 0 
L 581 0 
L 581 3500 
L 1159 3500 
L 1159 2956 
Q 1366 3272 1645 3428 
Q 1925 3584 2291 3584 
Q 2894 3584 3203 3211 
Q 3513 2838 3513 2113 
z
" transform="scale(0.015625)"/>
      <path id="DejaVuSans-66" d="M 2375 4863 
L 2375 4384 
L 1825 4384 
Q 1516 4384 1395 4259 
Q 1275 4134 1275 3809 
L 1275 3500 
L 2222 3500 
L 2222 3053 
L 1275 3053 
L 1275 0 
L 697 0 
L 697 3053 
L 147 3053 
L 147 3500 
L 697 3500 
L 697 3744 
Q 697 4328 969 4595 
Q 1241 4863 1831 4863 
L 2375 4863 
z
" transform="scale(0.015625)"/>
      <path id="DejaVuSans-76" d="M 191 3500 
L 800 3500 
L 1894 563 
L 2988 3500 
L 3597 3500 
L 2284 0 
L 1503 0 
L 191 3500 
z
" transform="scale(0.015625)"/>
      <path id="DejaVuSans-2e" d="M 684 794 
L 1344 794 
L 1344 0 
L 684 0 
L 684 794 
z
" transform="scale(0.015625)"/>
     </defs>
     <use xlink:href="#DejaVuSans-52"/>
     <use xlink:href="#DejaVuSans-65" x="64.982422"/>
     <use xlink:href="#DejaVuSans-67" x="126.505859"/>
     <use xlink:href="#DejaVuSans-72" x="189.982422"/>
     <use xlink:href="#DejaVuSans-65" x="228.845703"/>
     <use xlink:href="#DejaVuSans-73" x="290.369141"/>
     <use xlink:href="#DejaVuSans-73" x="342.46875"/>
     <use xlink:href="#DejaVuSans-69" x="394.568359"/>
     <use xlink:href="#DejaVuSans-6f" x="422.351562"/>
     <use xlink:href="#DejaVuSans-6e" x="483.533203"/>
     <use xlink:href="#DejaVuSans-20" x="546.912109"/>
     <use xlink:href="#DejaVuSans-6f" x="578.699219"/>
     <use xlink:href="#DejaVuSans-66" x="639.880859"/>
     <use xlink:href="#DejaVuSans-20" x="675.085938"/>
     <use xlink:href="#DejaVuSans-55" x="706.873047"/>
     <use xlink:href="#DejaVuSans-53" x="780.066406"/>
     <use xlink:href="#DejaVuSans-20" x="843.542969"/>
     <use xlink:href="#DejaVuSans-47" x="875.330078"/>
     <use xlink:href="#DejaVuSans-44" x="952.820312"/>
     <use xlink:href="#DejaVuSans-50" x="1029.822266"/>
     <use xlink:href="#DejaVuSans-20" x="1090.125"/>
     <use xlink:href="#DejaVuSans-76" x="1121.912109"/>
     <use xlink:href="#DejaVuSans-73" x="1181.091797"/>
     <use xlink:href="#DejaVuSans-2e" x="1233.191406"/>
     <use xlink:href="#DejaVuSans-20" x="1264.978516"/>
     <use xlink:href="#DejaVuSans-53" x="1296.765625"/>
     <use xlink:href="#DejaVuSans-50" x="1360.242188"/>
     <use xlink:href="#DejaVuSans-59" x="1418.294922"/>
    </g>
   </g>
  </g>
 </g>
 <defs>
  <clipPath id="p174ac2c1be">
   <rect x="57.6" y="41.472" width="357.12" height="266.112"/>
  </clipPath>
 </defs>
</svg>
